<svg width="218" height="63" viewBox="0 0 218 63" fill="none" xmlns="http://www.w3.org/2000/svg">
<g clip-path="url(#clip0_765_737)">
<path d="M158.616 8.0996L157.481 12.6772L156.959 11.9777L157.45 9.965C157.445 9.90954 157.427 9.85598 157.398 9.80821C157.37 9.76044 157.331 9.71967 157.284 9.68887C157.195 9.60709 157.08 9.5593 156.959 9.55387C156.758 9.57332 156.573 9.67018 156.443 9.82387C156.051 10.2736 155.583 10.6515 155.061 10.9406H154.853C154.704 10.953 154.555 10.9232 154.423 10.8547C154.239 10.8097 154.034 10.4845 153.809 9.87909L154.454 9.43729C154.434 9.5695 154.434 9.70393 154.454 9.83614C154.486 10.0325 154.556 10.1307 154.662 10.1307C155.049 9.91138 155.4 9.63639 155.706 9.31456C155.713 9.22674 155.713 9.13853 155.706 9.05071C155.706 8.68254 155.501 8.49232 155.092 8.48004C154.949 8.48004 154.744 8.46368 154.478 8.43096C154.393 8.40527 154.314 8.36122 154.247 8.30186C154.18 8.24251 154.127 8.1693 154.091 8.08733L153.969 8.03824L153.459 7.50439H159.365L159.918 8.11801L158.616 8.0996ZM155.989 8.0996C156.083 8.1717 156.16 8.26448 156.213 8.37083C156.266 8.47719 156.295 8.59431 156.296 8.71322C156.305 8.79681 156.305 8.88121 156.296 8.9648C156.485 8.84815 156.692 8.7651 156.91 8.71935C157.147 8.71935 157.397 8.92389 157.659 9.33297L157.959 8.10574L155.989 8.0996Z" fill="#231F20"/>
<path d="M163.134 8.09967L161.974 12.7509L161.654 12.1802C161.604 11.9018 161.493 11.6378 161.33 11.4067C161.167 11.1756 160.955 10.9831 160.709 10.8425C160.341 10.6401 159.931 10.5247 159.512 10.505L158.971 9.57848C159.459 9.31077 159.961 9.07108 160.476 8.86055C161.094 8.62036 161.725 8.41549 162.367 8.24694L162.404 8.1058H159.199L158.658 7.49219H163.945L164.479 8.1058L163.134 8.09967ZM160.347 9.85461C160.908 10.0877 161.384 10.4884 161.71 11.0021L162.176 9.16123C161.55 9.34621 160.938 9.57799 160.347 9.85461Z" fill="#231F20"/>
<path d="M161.679 7.31427H160.076L163.803 5.2832L164.491 5.35684L161.679 7.31427Z" fill="#231F20"/>
<path d="M168.133 8.12434C168.167 8.19537 168.184 8.27297 168.183 8.35138C168.178 8.52273 168.134 8.6907 168.054 8.84227C167.954 9.07069 167.788 9.26347 167.576 9.395C167.364 9.52652 167.118 9.59057 166.869 9.57861C166.605 9.578 166.349 9.48704 166.144 9.3209C165.936 9.16795 165.781 8.95322 165.702 8.70728C165.227 9.32499 164.818 9.63384 164.474 9.63384C164.278 9.6199 164.093 9.53733 163.952 9.40066C163.875 9.35181 163.809 9.28622 163.76 9.2087C163.711 9.13119 163.68 9.04372 163.67 8.95272C163.661 8.9206 163.661 8.88667 163.67 8.85455C163.813 8.67046 163.934 8.57842 164.032 8.57842C164.188 8.7625 164.29 8.85455 164.339 8.85455C164.525 8.82265 164.693 8.72455 164.812 8.57842C164.958 8.45534 165.07 8.29689 165.137 8.11821V8.08139H163.351L162.816 7.46777H168.901L169.478 8.08139H168.864C168.573 8.09366 168.33 8.10798 168.133 8.12434ZM167.421 8.12434H166.23C166.22 8.21399 166.233 8.3047 166.267 8.3882C166.313 8.52767 166.408 8.64588 166.534 8.72133C166.661 8.79678 166.81 8.82445 166.955 8.79932C167.125 8.80683 167.291 8.74984 167.421 8.63978C167.461 8.61311 167.494 8.57644 167.515 8.53338C167.537 8.49033 167.547 8.44239 167.544 8.39433C167.56 8.23479 167.519 8.13661 167.421 8.0998V8.12434Z" fill="#231F20"/>
<path d="M168.108 10.7322C168.036 10.9962 167.91 11.242 167.736 11.4535C167.563 11.665 167.346 11.8374 167.101 11.9594C166.91 12.0701 166.703 12.1508 166.487 12.1987C166.268 12.2334 166.046 12.2478 165.824 12.2417C165.665 12.2444 165.507 12.2173 165.358 12.1619L165.063 12.0453C164.301 11.7467 163.806 11.039 163.577 9.92221C163.451 9.34418 163.401 8.75208 163.43 8.16113L163.798 8.3759C163.872 8.67862 164.033 9.21246 164.283 9.97744C164.379 10.3778 164.607 10.7344 164.93 10.9902C165.252 11.2461 165.652 11.3864 166.064 11.3888C166.409 11.3906 166.748 11.2994 167.046 11.1249C167.189 11.0629 167.313 10.9625 167.403 10.8347C167.493 10.7069 167.546 10.5568 167.556 10.4008C167.555 10.2999 167.516 10.203 167.445 10.1308C167.411 10.0917 167.368 10.0605 167.32 10.0393C167.273 10.0181 167.221 10.0075 167.169 10.0081H167.132C167.172 10.0793 167.193 10.1596 167.193 10.2413C167.189 10.4152 167.126 10.5824 167.014 10.716C166.903 10.8496 166.75 10.9418 166.579 10.9776C166.445 11.0328 166.301 11.062 166.156 11.0635C165.973 11.0671 165.793 11.0158 165.64 10.9163C165.573 10.8777 165.517 10.8223 165.479 10.7555C165.44 10.6888 165.419 10.613 165.419 10.5358C165.417 10.389 165.447 10.2434 165.507 10.109C165.566 9.97464 165.653 9.85445 165.763 9.75654C165.918 9.59925 166.113 9.48688 166.328 9.43132L166.794 9.36382H167.071C167.226 9.36382 167.324 9.38632 167.365 9.43132C167.598 9.44862 167.814 9.55697 167.967 9.73279C168.12 9.90862 168.197 10.1377 168.182 10.3702C168.173 10.4934 168.148 10.6151 168.108 10.7322Z" fill="#231F20"/>
<path d="M170.147 11.8795C170.078 11.7804 170.039 11.663 170.036 11.5421C170.036 11.315 170.202 11.1248 170.546 10.9837C170.654 10.9331 170.771 10.9059 170.89 10.9039C170.951 10.899 171.012 10.9063 171.07 10.9253C171.128 10.9442 171.181 10.9745 171.227 11.0143C171.305 11.0495 171.37 11.1067 171.415 11.1787C171.46 11.2508 171.482 11.3345 171.479 11.4193C171.47 11.5621 171.426 11.7005 171.351 11.8224C171.276 11.9443 171.173 12.0461 171.049 12.1189C170.825 12.2818 170.553 12.3679 170.276 12.3643C169.998 12.384 169.723 12.301 169.502 12.1311C169.306 11.9749 169.149 11.7758 169.043 11.5492C168.936 11.3225 168.883 11.0745 168.888 10.8241C168.921 10.2885 169.073 9.76679 169.332 9.29672C169.591 8.82664 169.951 8.41989 170.386 8.1058H169.054L168.514 7.49219H172.333L172.867 8.1058C172.218 8.10529 171.581 8.28136 171.025 8.61511C170.472 8.92195 170.04 9.40628 169.797 9.98961C169.644 10.3187 169.548 10.6715 169.514 11.0328C169.518 11.2191 169.571 11.4011 169.668 11.5605C169.711 11.6525 169.778 11.731 169.863 11.7872C169.947 11.8435 170.045 11.8755 170.147 11.8795Z" fill="#231F20"/>
<path d="M175.913 8.09994L174.783 12.5916L174.488 12.2909L174.157 11.4196C173.965 11.1073 173.693 10.852 173.369 10.6804C173.045 10.5088 172.681 10.4272 172.315 10.444L171.774 9.57876C172.851 9.00347 173.991 8.55262 175.17 8.23494V8.09994H172.149L171.584 7.48633H176.637L177.202 8.09994H175.913ZM172.898 12.1314C172.755 12.1334 172.616 12.0857 172.505 11.9964C172.455 11.9583 172.414 11.9091 172.387 11.8526C172.359 11.7962 172.345 11.7341 172.345 11.6712C172.348 11.5886 172.369 11.5077 172.408 11.4344C172.446 11.3611 172.5 11.2973 172.566 11.2478C172.704 11.1274 172.881 11.0618 173.064 11.0637C173.201 11.0623 173.334 11.1103 173.438 11.1987C173.486 11.2343 173.526 11.2804 173.554 11.3336C173.581 11.3868 173.596 11.4456 173.598 11.5055C173.595 11.5883 173.574 11.6696 173.537 11.7437C173.5 11.8178 173.448 11.8831 173.383 11.935C173.254 12.0593 173.083 12.1295 172.904 12.1314H172.898ZM173.899 9.43149C173.755 9.48876 173.493 9.61762 173.113 9.81807C173.686 10.0489 174.162 10.4719 174.457 11.0146L174.955 9.06946C174.598 9.16809 174.247 9.289 173.905 9.43149H173.899Z" fill="#231F20"/>
<path d="M180.277 8.09994L179.153 12.5916L178.859 12.2909L178.521 11.4196C178.329 11.1073 178.057 10.852 177.733 10.6804C177.409 10.5088 177.045 10.4272 176.679 10.444L176.163 9.57876C177.24 9.00366 178.38 8.55282 179.559 8.23494V8.09994H176.532L175.967 7.48633H181.02L181.585 8.09994H180.277ZM177.262 12.1314C177.12 12.1334 176.981 12.0857 176.869 11.9964C176.819 11.9583 176.779 11.9091 176.751 11.8526C176.723 11.7962 176.709 11.7341 176.71 11.6712C176.712 11.5885 176.733 11.5074 176.771 11.4341C176.81 11.3607 176.864 11.297 176.931 11.2478C177.068 11.1274 177.245 11.0618 177.428 11.0637C177.565 11.0618 177.698 11.1098 177.803 11.1987C177.851 11.2343 177.89 11.2804 177.918 11.3336C177.946 11.3868 177.961 11.4456 177.962 11.5055C177.959 11.5883 177.939 11.6696 177.902 11.7437C177.865 11.8178 177.812 11.8831 177.747 11.935C177.617 12.0602 177.443 12.1305 177.262 12.1314ZM178.263 9.43149C178.12 9.48876 177.858 9.61762 177.477 9.81807C178.051 10.0489 178.526 10.4719 178.822 11.0146L179.319 9.06946C178.96 9.16746 178.607 9.28839 178.263 9.43149Z" fill="#231F20"/>
<path d="M186.644 9.27182C186.757 9.33508 186.852 9.42585 186.92 9.53568C187.077 9.74537 187.165 9.99824 187.172 10.2597C187.167 10.4662 187.114 10.6687 187.018 10.8517C186.923 11.0346 186.786 11.1932 186.619 11.3152C186.278 11.6096 185.843 11.7727 185.391 11.7754C185.106 11.7858 184.822 11.7196 184.571 11.5837C184.319 11.4477 184.109 11.2469 183.961 11.0022C183.716 10.6157 183.594 10.1644 183.611 9.70749C183.624 9.26016 183.704 8.81737 183.85 8.39435C183.85 8.32072 183.906 8.2839 183.942 8.2839H184.004C184.121 8.32956 184.229 8.39608 184.323 8.48025C184.23 8.74402 184.186 9.02281 184.194 9.3025C184.205 9.49365 184.225 9.68412 184.256 9.87316C184.301 10.0623 184.389 10.2386 184.513 10.3886C184.617 10.5385 184.755 10.6607 184.917 10.7442C185.079 10.8277 185.259 10.8699 185.441 10.8672C185.677 10.8547 185.91 10.8092 186.134 10.7322C186.433 10.63 186.599 10.5011 186.632 10.3456C186.634 10.3232 186.634 10.3006 186.632 10.2782C186.628 10.2475 186.618 10.2181 186.601 10.1922C186.601 10.137 186.601 10.1125 186.54 10.1125C186.509 10.1067 186.478 10.1067 186.447 10.1125C186.167 10.2219 185.87 10.2861 185.57 10.3027C185.384 10.3045 185.201 10.2625 185.035 10.18C184.887 10.0981 184.763 9.97812 184.677 9.83249C184.591 9.68687 184.545 9.52086 184.544 9.35159C184.583 9.09542 184.68 8.85156 184.828 8.6388C184.976 8.42604 185.171 8.25005 185.398 8.12436H183.617L183.064 7.51074H189.818L190.352 8.12436H187.031C186.922 8.16345 186.815 8.20852 186.712 8.25935C186.693 8.27006 186.677 8.28513 186.665 8.30328C186.653 8.32144 186.646 8.34215 186.644 8.36367C186.644 8.45367 186.785 8.53139 187.068 8.59684C187.25 8.64437 187.438 8.66707 187.626 8.66434C187.969 8.6156 188.308 8.54177 188.639 8.44344L189.327 9.22887C189.061 9.41227 188.822 9.6311 188.615 9.8793C188.403 10.1045 188.242 10.3723 188.142 10.6647C188.009 10.9483 187.93 11.2542 187.909 11.5667C187.918 11.8565 187.967 12.1436 188.056 12.4197C188.016 12.4574 187.964 12.4811 187.909 12.4872C187.804 12.4815 187.701 12.4609 187.602 12.4258C187.446 12.3767 187.368 12.3276 187.368 12.2785C187.368 12.1558 187.368 11.8858 187.368 11.4686C187.349 11.0969 187.386 10.7245 187.479 10.3641C187.597 10.0001 187.766 9.65505 187.982 9.33932C187.611 9.33295 187.243 9.27301 186.89 9.16137C186.701 9.1095 186.526 9.0197 186.374 8.89751C186.261 8.77336 186.163 8.6376 186.079 8.49253C185.867 8.5762 185.681 8.71368 185.539 8.89138C185.371 9.03925 185.237 9.22128 185.146 9.42522C185.143 9.44971 185.143 9.47437 185.146 9.49886C185.146 9.57863 185.22 9.61545 185.361 9.61545C185.664 9.56045 185.959 9.46768 186.239 9.33932C186.336 9.29769 186.437 9.26283 186.54 9.235C186.593 9.23301 186.645 9.25045 186.687 9.28409L186.644 9.27182Z" fill="#231F20"/>
<path d="M192.416 9.98347L192.889 8.1058H189.506L188.953 7.49219H194.442L195.019 8.1058H193.601L192.428 12.7754L192.134 12.3275C192.209 12.1321 192.245 11.9234 192.238 11.7139C192.241 11.2711 192.177 10.8304 192.048 10.4069C191.972 10.1994 191.837 10.0183 191.661 9.88529C191.492 9.731 191.275 9.63993 191.047 9.62757C191.122 9.75441 191.167 9.89747 191.176 10.0448C191.169 10.2222 191.104 10.3925 190.992 10.5296C190.897 10.6377 190.778 10.7219 190.645 10.7753C190.511 10.8286 190.367 10.8495 190.224 10.8364C189.606 10.8364 189.311 10.5971 189.34 10.1185C189.357 9.92125 189.422 9.73118 189.529 9.5645C189.636 9.39781 189.782 9.25945 189.954 9.16123C190.243 8.96362 190.586 8.85875 190.936 8.86055C191.26 8.84597 191.578 8.94285 191.839 9.13498C192.099 9.32711 192.286 9.60283 192.367 9.91597L192.416 9.98347Z" fill="#231F20"/>
<path d="M198.665 9.92211V9.84234C198.664 9.65858 198.591 9.48247 198.462 9.35145C198.35 9.2322 198.212 9.13991 198.059 9.08146C197.906 9.02302 197.742 8.99994 197.578 9.01396L196.688 12.5729L196.387 12.2661C196.387 12.1475 196.36 11.9818 196.307 11.7691C196.241 11.6042 196.152 11.4493 196.043 11.3089C195.921 11.1241 195.767 10.9621 195.589 10.8303C195.235 10.6266 194.841 10.503 194.435 10.4682L193.821 9.63371C194.827 9.02808 195.917 8.57519 197.056 8.28989L197.099 8.1058H194.079L193.514 7.49219H200.108L200.66 8.1058H197.818L197.787 8.24694C197.988 8.24739 198.186 8.29026 198.369 8.37274C198.552 8.45523 198.716 8.57546 198.849 8.72556C198.981 8.85211 199.086 9.00351 199.159 9.17098C199.231 9.33845 199.27 9.51867 199.273 9.70121C199.284 9.90247 199.246 10.1035 199.162 10.2865C199.077 10.4695 198.949 10.6289 198.788 10.7505C198.591 10.9035 198.349 10.9876 198.1 10.9898C197.933 10.9843 197.774 10.9189 197.652 10.8057C197.595 10.7628 197.548 10.7073 197.516 10.6434C197.484 10.5795 197.468 10.509 197.468 10.4375C197.468 10.2105 197.621 10.008 197.934 9.82393C198.046 9.79349 198.162 9.777 198.278 9.77484C198.42 9.78099 198.555 9.83265 198.665 9.92211ZM195.755 9.49871C195.755 9.49871 195.534 9.60303 195.141 9.79939C195.662 10.0234 196.094 10.4141 196.369 10.91L196.817 9.06918C196.454 9.18894 196.099 9.33243 195.755 9.49871Z" fill="#231F20"/>
<path d="M204.511 8.11202L203.381 12.6466L202.767 12.076L203.381 9.62152C203.395 9.56637 203.394 9.50861 203.379 9.45381C203.364 9.399 203.335 9.34899 203.295 9.30857C203.256 9.26164 203.207 9.22402 203.152 9.19852C203.097 9.17303 203.037 9.16031 202.976 9.1613C202.718 9.1613 202.577 9.3863 202.552 9.83628L201.981 10.0142C202.039 9.93983 202.076 9.85051 202.085 9.75651C202.091 9.73022 202.091 9.70303 202.085 9.67674C202.045 9.56446 201.985 9.46047 201.907 9.36993C201.83 9.29592 201.739 9.23906 201.638 9.20309C201.538 9.16713 201.431 9.15289 201.324 9.1613C201.064 9.15896 200.812 9.24802 200.612 9.41289C200.512 9.48122 200.431 9.57291 200.376 9.6799C200.32 9.78689 200.291 9.90591 200.293 10.0265C200.292 10.1028 200.319 10.1768 200.367 10.2361C200.415 10.2953 200.482 10.3362 200.557 10.3517C200.551 10.3151 200.551 10.2779 200.557 10.2413C200.559 10.1501 200.583 10.0609 200.627 9.98091C200.671 9.90092 200.733 9.83243 200.808 9.78106C200.957 9.65639 201.143 9.58508 201.336 9.57856C201.468 9.56635 201.599 9.60557 201.702 9.68798C201.805 9.77039 201.872 9.88954 201.889 10.0204C201.916 10.1007 201.926 10.1858 201.919 10.2703C201.912 10.3548 201.887 10.4368 201.846 10.5113C201.739 10.6608 201.597 10.7813 201.432 10.8617C201.267 10.9421 201.084 10.9799 200.9 10.9715C200.581 10.9862 200.266 10.8956 200.004 10.7138C199.885 10.6364 199.787 10.5299 199.72 10.4042C199.654 10.2786 199.62 10.138 199.623 9.99582C199.627 9.77076 199.679 9.54905 199.774 9.34504C199.869 9.14104 200.006 8.95928 200.176 8.81154C200.435 8.54052 200.79 8.38187 201.164 8.36974C201.339 8.35857 201.514 8.38636 201.676 8.4511C201.839 8.51584 201.985 8.61591 202.104 8.74404L202.159 8.81154C202.258 8.69586 202.377 8.59827 202.509 8.52314C202.629 8.44197 202.77 8.39721 202.914 8.39428C203.103 8.39013 203.287 8.46069 203.424 8.59064L203.553 8.787C203.578 8.8094 203.599 8.83649 203.614 8.86677L203.792 8.13657H199.936L199.359 7.52295H205.315L205.892 8.13657L204.511 8.11202Z" fill="#231F20"/>
<path d="M207.539 8.0754C207.325 8.07016 207.113 8.12093 206.925 8.22267C206.756 8.30486 206.62 8.44091 206.538 8.60925C206.422 8.90482 206.357 9.2183 206.348 9.53581C206.348 9.8058 206.348 10.0758 206.348 10.3458C206.349 10.6141 206.321 10.8817 206.262 11.1435C206.164 11.4282 206.003 11.6868 205.79 11.8996C205.577 12.1123 205.319 12.2735 205.034 12.3707C204.804 12.4962 204.551 12.5734 204.291 12.5978C204.094 12.5978 203.996 12.5057 203.996 12.3584C203.996 12.2112 204.07 12.1866 204.217 12.1437L204.579 12.0578C204.74 11.9786 204.891 11.8797 205.028 11.7632C205.171 11.6048 205.276 11.416 205.335 11.211C205.385 10.9524 205.398 10.6878 205.371 10.4256C205.371 10.2783 205.371 10.131 205.371 9.98375C205.37 9.44564 205.567 8.92579 205.924 8.52334C206.092 8.38016 206.249 8.23903 206.397 8.09994H205.169L204.604 7.48633H207.889L208.503 8.09994C208.257 8.08154 207.944 8.0754 207.539 8.0754Z" fill="#231F20"/>
<path d="M208.354 7.98918V7.70078C208.401 7.33828 208.473 6.97946 208.569 6.62695L208.895 6.90308C208.89 6.98891 208.89 7.07497 208.895 7.1608C208.901 7.23576 208.916 7.30982 208.938 7.3817L209.005 7.49215H209.773L210.313 8.10577H208.95L207.783 12.7754L207.237 12.1618L208.054 8.88506C208.071 8.81032 208.071 8.73276 208.054 8.65802C208.059 8.5937 208.044 8.52941 208.011 8.47394C207.952 8.36387 207.863 8.27297 207.754 8.21204C207.645 8.15112 207.521 8.12275 207.397 8.13031H207.225L206.666 7.5167C206.918 7.5167 207.139 7.47988 207.329 7.47988C207.444 7.4715 207.558 7.4715 207.673 7.47988C207.825 7.48478 207.972 7.53626 208.094 7.62735C208.216 7.71844 208.307 7.84474 208.354 7.98918Z" fill="#231F20"/>
<path d="M210.657 11.8795C210.587 11.7804 210.549 11.663 210.546 11.5421C210.546 11.313 210.716 11.1268 211.056 10.9837C211.163 10.9332 211.281 10.9061 211.4 10.9039C211.46 10.899 211.521 10.9063 211.579 10.9253C211.637 10.9442 211.691 10.9745 211.737 11.0143C211.815 11.0495 211.88 11.1067 211.924 11.1787C211.969 11.2508 211.992 11.3345 211.989 11.4193C211.98 11.5621 211.936 11.7005 211.861 11.8224C211.786 11.9443 211.682 12.0461 211.559 12.1189C211.334 12.2814 211.063 12.3674 210.786 12.3643C210.508 12.3834 210.233 12.3005 210.012 12.1311C209.817 11.9746 209.66 11.7754 209.553 11.5489C209.447 11.3223 209.394 11.0744 209.398 10.8241C209.431 10.2885 209.582 9.76679 209.841 9.29672C210.1 8.82664 210.461 8.41989 210.896 8.1058H209.564L209.023 7.49219H212.842L213.377 8.1058C212.728 8.10498 212.091 8.28107 211.535 8.61511C210.982 8.92233 210.55 9.40654 210.307 9.98961C210.154 10.3187 210.058 10.6715 210.024 11.0328C210.028 11.219 210.081 11.401 210.178 11.5605C210.221 11.6521 210.289 11.7302 210.373 11.7864C210.457 11.8426 210.555 11.8748 210.657 11.8795Z" fill="#231F20"/>
<path d="M213.53 9.65197C213.53 9.24289 213.757 9.03835 214.212 9.03835C214.367 9.03229 214.518 9.08489 214.635 9.18562C214.688 9.23392 214.729 9.29287 214.757 9.35851C214.784 9.42414 214.797 9.49492 214.795 9.56606C214.795 9.80742 214.625 10.012 214.285 10.1797C214.085 10.2786 213.864 10.3291 213.641 10.3269C213.329 10.3397 213.023 10.237 212.781 10.0385C212.673 9.94908 212.587 9.83641 212.528 9.70893C212.47 9.58144 212.441 9.44242 212.444 9.30221C212.445 9.05638 212.5 8.81386 212.606 8.5921C212.713 8.37034 212.867 8.17487 213.058 8.01975C213.464 7.65684 213.993 7.46163 214.537 7.47363C214.667 7.47201 214.795 7.49277 214.918 7.53499C215.024 7.58899 215.127 7.65051 215.225 7.71908C215.474 7.922 215.647 8.20312 215.716 8.51678C215.802 7.83804 215.942 7.16713 216.134 6.51025C216.284 6.66325 216.403 6.84472 216.484 7.0441C216.478 7.10207 216.485 7.1605 216.504 7.2155C216.524 7.27051 216.554 7.32085 216.594 7.36318L216.729 7.45522H217.343L217.902 8.06884H216.441L215.323 12.5851L214.709 11.9285L215.323 9.47402C215.333 9.37813 215.333 9.28152 215.323 9.18562C215.325 8.96028 215.244 8.74213 215.096 8.57201C215.023 8.47581 214.931 8.39605 214.825 8.3379C214.719 8.27975 214.602 8.24452 214.482 8.23452C214.335 8.21732 214.187 8.2314 214.046 8.27583C213.905 8.32025 213.775 8.39401 213.665 8.49223C213.555 8.57355 213.465 8.6787 213.401 8.79984C213.337 8.92097 213.302 9.05495 213.297 9.19176C213.338 9.47811 213.416 9.63152 213.53 9.65197Z" fill="#231F20"/>
<path d="M13.9494 17.5554C12.9787 17.5059 12.0147 17.3662 11.0699 17.1382C10.9241 17.3167 10.7339 17.4538 10.5184 17.5357C10.3028 17.6176 10.0695 17.6413 9.84191 17.6045C9.15016 17.6045 8.80428 17.5125 8.80428 17.3284C8.80428 17.1443 9.00894 16.9398 9.41826 16.7148C6.63079 15.7616 5.23705 14.1253 5.23705 11.8058C5.23705 9.26545 6.43635 7.45324 8.83497 6.36918C6.24884 6.38992 3.67596 6.74047 1.17865 7.41233L0.773438 7.09325L1.03744 6.78644C3.56351 6.02979 6.18012 5.61699 8.81657 5.55921C9.53089 5.54763 10.2446 5.60724 10.9471 5.73716L11.561 5.63898C11.6988 5.51158 11.8099 5.35811 11.8879 5.18747C11.9659 5.01683 12.0093 4.83242 12.0154 4.64492C12.0154 3.54041 10.4068 2.96157 7.18951 2.90839C6.65739 2.56476 6.39134 2.28045 6.39134 2.05546C6.39134 1.83047 6.66765 1.7282 7.22023 1.74865C8.65629 1.723 10.087 1.93023 11.4567 2.36227C12.8934 2.84498 13.6138 3.54655 13.6179 4.46697C13.6003 4.7824 13.4893 5.0855 13.2991 5.33784C13.1089 5.59019 12.8481 5.78042 12.5496 5.88443C11.8578 6.14214 11.1108 6.42645 10.3085 6.73735C8.14323 7.59641 7.06059 9.25932 7.06059 11.7261C7.06059 13.9146 8.18007 15.4487 10.4191 16.3282C10.9455 16.1635 11.4946 16.0827 12.0461 16.0889C12.6711 16.0926 13.2919 16.1898 13.8881 16.3773C14.633 16.6023 15.0055 16.8866 15.0055 17.2302C15.0137 17.447 14.6617 17.5554 13.9494 17.5554ZM13.3355 16.9418C13.2986 16.7823 13.094 16.68 12.7215 16.635L12.0584 16.5859L11.7944 16.6963C12.214 16.8098 12.6406 16.8959 13.0715 16.9541L13.3355 16.9418Z" fill="#231F20"/>
<path d="M21.8638 6.33256C21.4176 6.33256 20.7606 6.29574 19.8929 6.22211C19.0251 6.14848 18.3682 6.11166 17.922 6.11166C16.132 6.10825 14.3464 6.28713 12.5927 6.64551C12.5927 6.79687 12.6192 7.54548 12.6725 8.89134C12.7093 9.7954 12.7093 10.5379 12.6725 11.1188C13.683 10.5128 14.7453 9.99742 15.8468 9.57859C16.9418 9.08459 18.1126 8.77959 19.3096 8.67658C19.7681 8.67658 19.9973 8.73589 19.9973 8.85453L19.064 10.4929C18.5451 11.2778 18.2248 12.177 18.1307 13.113C18.1307 14.6552 19.0804 16.087 20.9796 17.4083C21.0533 17.4636 21.084 17.5065 21.084 17.5372C21.084 17.709 20.7647 17.7949 20.1262 17.7949L19.5122 17.7151C18.5693 17.2179 17.7701 16.4868 17.1914 15.592C16.6949 14.8416 16.4262 13.9636 16.4178 13.0639C16.4385 12.0878 16.7136 11.1339 17.2159 10.2965L14.4714 11.6158C13.5989 12.0403 12.7753 12.5588 12.0155 13.1621C11.7587 13.315 11.4596 13.3816 11.1621 13.3523C10.63 13.3523 10.3639 13.2767 10.3639 13.1253C10.3984 12.5756 10.5057 12.0329 10.6832 11.5115C10.8603 10.99 10.9677 10.4473 11.0024 9.89767C11.0024 9.71359 10.9758 9.23088 10.9226 8.44954C10.8858 7.92592 10.8674 7.44935 10.8674 7.01981L7.79748 7.90342C7.74282 7.91067 7.68718 7.90513 7.63503 7.88724C7.58287 7.86935 7.53559 7.83961 7.4969 7.80034C7.45821 7.76108 7.42919 7.71337 7.41209 7.66098C7.39499 7.60859 7.39029 7.55295 7.39838 7.49843C7.39838 7.18753 7.87726 6.93595 8.83507 6.74369L10.8612 6.32643C10.8244 5.95008 11.1171 5.7619 11.7392 5.7619C12.2181 5.7619 12.4944 5.83144 12.5681 5.97053C14.3475 5.67435 16.1488 5.52861 17.9527 5.53486C18.931 5.53486 19.8376 5.56759 20.6726 5.63304C22.0398 5.7394 22.7233 5.88871 22.7233 6.08098C22.7233 6.27325 22.4368 6.35711 21.8638 6.33256Z" fill="#231F20"/>
<path d="M42.4622 1.23953C42.2282 1.2294 41.9959 1.19652 41.7684 1.14135C40.6382 0.870285 39.4886 0.687693 38.3301 0.595231C36.0543 0.595231 33.7007 1.6302 31.2693 3.70013C27.8631 6.58285 25.4189 10.4364 24.2638 14.7452L23.7296 17.1997V17.3286C23.6928 17.5126 23.3899 17.6047 22.8209 17.6047C22.252 17.6047 21.9593 17.5085 21.9429 17.3163C21.9429 16.7804 22.0002 15.9725 22.1148 14.8925C22.2294 13.8125 22.2868 13.0066 22.2868 12.4748C22.3394 11.3511 22.1004 10.2329 21.593 9.22881C20.9544 8.12431 19.8001 7.32047 18.1301 6.8173L18.0257 6.78662C17.8497 6.73344 17.7617 6.67003 17.7617 6.5964C17.7617 6.52277 17.8558 6.46345 18.0441 6.41845C18.1855 6.36287 18.3346 6.32974 18.4862 6.32027C19.8585 6.34282 21.1684 6.89725 22.1394 7.86659C22.9658 8.58948 23.5989 9.50689 23.9813 10.5358C25.3111 8.04611 27.0083 5.77068 29.016 3.78604C31.5861 1.33789 35.0069 -0.0172992 38.5572 0.00615891C39.4164 0.0421049 40.2719 0.138477 41.1175 0.294559C42.501 0.519552 43.1928 0.724091 43.1928 0.908176C43.1928 1.09226 42.9492 1.20271 42.4622 1.23953Z" fill="#231F20"/>
<path d="M40.3573 7.05672C40.0166 7.02513 39.6782 6.97184 39.3443 6.89718C39.0939 8.1751 38.9603 9.47313 38.9452 10.7752C39.018 11.8379 39.2243 12.8873 39.5592 13.8985C39.8941 14.9098 40.1003 15.9591 40.1732 17.0218C40.1732 17.2059 39.8805 17.298 39.2952 17.298C38.7098 17.298 38.3987 17.2121 38.3619 17.0403C36.9948 13.6081 34.7292 11.71 31.5651 11.3459V11.5361C31.5794 12.1822 31.4136 12.8196 31.0863 13.377C30.8763 13.7463 30.5688 14.051 30.1974 14.2576C29.8261 14.4643 29.4051 14.5651 28.9803 14.549C28.1617 14.549 27.7523 13.9354 27.7523 12.7081C27.7523 11.755 28.3827 11.1414 29.6434 10.8673C29.5902 10.6218 29.848 10.4991 30.417 10.4991C30.986 10.4991 31.3154 10.5789 31.4055 10.7384C32.5876 10.7941 33.7528 11.0407 34.8561 11.4686C35.8287 11.7889 36.7223 12.3117 37.4778 13.0027C37.2984 12.3287 37.1913 11.6375 37.1585 10.9409C37.2084 9.47309 37.4142 8.01472 37.7725 6.59037C36.4558 6.4136 35.1285 6.32749 33.8 6.33265C31.2801 6.28467 28.768 6.62619 26.3524 7.34512C26.1039 7.43715 25.8433 7.49295 25.5788 7.51079C25.1695 7.51079 24.9648 7.41875 24.9648 7.23467C25.3046 6.76423 26.6451 6.40015 28.9864 6.14243C30.5518 5.96139 32.1259 5.86512 33.7018 5.85403C35.1374 5.85239 36.5722 5.92818 37.9996 6.08107L38.0795 5.92153C38.2813 5.87795 38.487 5.85533 38.6934 5.85403C38.9939 5.86466 39.2906 5.92479 39.5715 6.03198L39.5162 6.24061C40.5804 6.45742 41.1125 6.63946 41.1125 6.78673C41.1125 6.934 40.8608 7.02399 40.3573 7.05672Z" fill="#231F20"/>
<path d="M53.5208 7.07483C52.0822 6.46725 50.5249 6.19246 48.9651 6.27099H48.6213C50.1382 6.75464 51.4485 7.73357 52.342 9.05067L52.5569 9.01999C52.655 9.01315 52.7534 9.01315 52.8516 9.01999C53.4246 9.01999 53.7111 9.1059 53.7111 9.27771C53.7111 9.44952 53.484 9.53543 53.0296 9.53543L52.649 9.6827C52.7344 9.90837 52.7801 10.1471 52.784 10.3884C52.7857 10.9229 52.6682 11.4511 52.4402 11.9347C52.3392 12.2394 52.1475 12.5061 51.8908 12.6991C51.6341 12.8921 51.3245 13.0022 51.0035 13.0146C50.0784 13.0146 49.6159 12.4726 49.6159 11.3886C49.6294 10.998 49.7514 10.619 49.9683 10.2939C50.1852 9.96874 50.4884 9.71038 50.8439 9.5477C50.2486 8.34571 49.2359 7.40129 47.995 6.89074C48.1665 7.81928 48.2385 8.76345 48.2099 9.70724C48.2099 10.4559 48.1792 11.5788 48.1178 13.076C48.0564 14.5732 48.0257 15.6961 48.0257 16.4448C48.0467 16.6292 48.0102 16.8156 47.9213 16.9786C47.8149 17.1177 47.5386 17.1872 47.0925 17.1872C46.5603 17.1872 46.2759 17.0952 46.239 16.9111C46.1325 16.3275 45.9806 15.753 45.7847 15.193C45.3641 14.5905 44.8064 14.0963 44.1576 13.751C42.7536 12.8715 41.9002 12.3131 41.5973 12.0758C40.6927 11.3681 40.2404 10.6931 40.2404 10.0509C40.2404 9.40862 40.7643 8.76023 41.8122 8.1057L44.5321 6.54712C42.5483 6.76818 40.5785 7.10006 38.6318 7.54118L38.3125 7.2221L38.5274 6.91529C40.7788 6.37354 43.0739 6.03267 45.3856 5.89668C45.7995 5.63852 46.288 5.5262 46.7732 5.5776C47.5018 5.5776 48.7011 5.66351 50.3711 5.83532C51.4938 5.90502 52.6077 6.07755 53.6989 6.35076C53.8633 6.45163 54.0071 6.58282 54.1225 6.73734C53.9654 6.91399 53.7535 7.03283 53.5208 7.07483ZM46.153 6.74961C45.8665 6.92961 45.4756 7.1546 44.9804 7.42459C44.3022 7.76682 43.6479 8.15428 43.0218 8.58433C42.3259 9.09976 41.978 9.59475 41.978 10.0693C41.978 10.7238 42.5183 11.4111 43.5989 12.131L46.2697 13.8737C46.3925 11.8651 46.4539 10.4702 46.4539 9.68883C46.5135 8.69773 46.4035 7.70371 46.1285 6.74961H46.153Z" fill="#231F20"/>
<path d="M33.383 50.1937L26.3898 49.3469V43.6157C26.3395 41.8246 25.8885 40.0676 25.0697 38.4736C24.435 37.2742 23.4782 36.2755 22.3068 35.5896C21.108 34.9001 19.7284 34.5897 18.3497 34.6992C16.9709 34.8088 15.6577 35.3331 14.583 36.2032C13.8924 36.7163 13.3314 37.3835 12.9444 38.1516C12.5575 38.9196 12.3554 39.7674 12.3542 40.6274C12.3408 41.4752 12.599 42.3051 13.091 42.9959C13.5781 43.6832 14.4315 44.0411 15.6513 44.0698C16.1702 44.0748 16.6825 43.9526 17.1432 43.7139C17.3634 43.597 17.5449 43.4189 17.6659 43.2011C17.7868 42.9833 17.842 42.7351 17.8248 42.4866C17.8248 41.8035 17.4359 40.8646 16.6582 39.6701L20.4588 38.7743C21.4739 40.2347 21.9814 41.5314 21.9814 42.6646C21.9901 43.3804 21.8096 44.0859 21.4581 44.7097C21.1067 45.3335 20.5967 45.8536 19.9798 46.2174C18.433 47.1547 16.6491 47.6275 14.8408 47.5796C12.9786 47.6396 11.1361 47.183 9.51762 46.2604C8.13574 45.4532 6.99845 44.2869 6.22665 42.8855C5.49522 41.5565 5.11287 40.0639 5.11535 38.5472C5.11989 37.0379 5.52226 35.5564 6.28192 34.2519C7.13035 32.8123 8.36925 31.6423 9.8553 30.877C11.7593 29.9311 13.8703 29.4775 15.9951 29.5577C20.9069 29.5577 24.3698 31.2718 26.3836 34.6998V25.3299H2.98485L2.07617 22.3784H37.1897L38.1536 25.3299H33.3892L33.383 50.1937Z" fill="#BCBEC0" stroke="#BCBEC0" stroke-width="0.78" stroke-linejoin="round"/>
<path d="M68.7167 25.3241H37.1827L36.2188 22.3726H67.7835L68.7167 25.3241ZM53.6988 49.4637C51.5811 49.4425 49.4953 48.9454 47.5958 48.0095C45.4496 46.9471 43.6266 45.3307 42.3156 43.3276C40.8297 41.1676 39.833 38.3041 39.3255 34.7369L42.0086 33.0372C42.0939 35.2507 42.6155 37.4256 43.5435 39.4372C44.2043 40.8453 45.2492 42.0385 46.5582 42.8796C47.6676 43.5582 48.9414 43.921 50.242 43.9289C51.5469 43.9296 52.8316 43.607 53.9812 42.9901C55.077 42.4405 56.0182 41.6264 56.7196 40.6215C57.469 39.5324 57.9063 38.2593 57.9844 36.9398C58.0056 36.3655 57.9013 35.7934 57.6786 35.2635C57.4559 34.7336 57.1202 34.2587 56.695 33.8717C55.8915 33.1199 54.8301 32.7048 53.7295 32.712C53.048 32.7124 52.3743 32.8567 51.7525 33.1354C51.1796 33.3604 50.692 33.7596 50.3587 34.2767C50.0909 34.6908 49.9422 35.1706 49.929 35.6635C49.9217 36.0631 50.0566 36.4524 50.3096 36.7619C50.442 36.9187 50.6091 37.0425 50.7978 37.1235C50.9864 37.2044 51.1914 37.2403 51.3963 37.2282C52.2886 37.1282 53.1372 36.789 53.8523 36.2464L55.2215 38.6641C54.1619 39.5718 52.8164 40.078 51.4209 40.0938C50.3316 40.1041 49.2636 39.7924 48.351 39.1979C47.4049 38.5806 46.712 37.6443 46.3986 36.5594C46.2279 35.9482 46.1432 35.3162 46.1468 34.6817C46.1691 33.3065 46.5962 31.9684 47.3748 30.8343C48.3525 29.4528 49.7335 28.4069 51.3288 27.8399C52.4429 27.4063 53.6268 27.1797 54.8224 27.171C56.2474 27.1505 57.6608 27.4313 58.9697 27.9949C60.2785 28.5586 61.4534 29.3923 62.4173 30.4416C63.437 31.4586 64.2444 32.668 64.7925 33.9995C65.3406 35.3309 65.6185 36.758 65.61 38.1977C65.61 41.2699 64.3432 44.0578 61.8095 46.5613C59.578 48.5283 56.6787 49.5688 53.7049 49.4699" fill="#BCBEC0"/>
<path d="M53.6988 49.4637C51.5811 49.4425 49.4953 48.9454 47.5958 48.0095C45.4496 46.9471 43.6266 45.3307 42.3156 43.3276C40.8297 41.1676 39.833 38.3041 39.3255 34.7369L42.0086 33.0372C42.0939 35.2507 42.6155 37.4256 43.5435 39.4372C44.2043 40.8453 45.2492 42.0385 46.5582 42.8796C47.6676 43.5582 48.9414 43.921 50.242 43.9289C51.5469 43.9296 52.8316 43.607 53.9812 42.9901C55.077 42.4405 56.0182 41.6264 56.7196 40.6215C57.469 39.5324 57.9063 38.2593 57.9844 36.9398C58.0056 36.3655 57.9013 35.7934 57.6786 35.2635C57.4559 34.7336 57.1202 34.2587 56.695 33.8717C55.8915 33.1199 54.8301 32.7048 53.7295 32.712C53.048 32.7124 52.3743 32.8567 51.7525 33.1354C51.1796 33.3604 50.692 33.7596 50.3587 34.2767C50.0909 34.6908 49.9422 35.1706 49.929 35.6635C49.9217 36.0631 50.0566 36.4524 50.3096 36.7619C50.442 36.9187 50.6091 37.0425 50.7978 37.1235C50.9864 37.2044 51.1914 37.2403 51.3963 37.2282C52.2886 37.1282 53.1372 36.789 53.8523 36.2464L55.2215 38.6641C54.1619 39.5718 52.8164 40.078 51.4209 40.0938C50.3316 40.1041 49.2636 39.7924 48.351 39.1979C47.4049 38.5806 46.712 37.6443 46.3986 36.5594C46.2279 35.9482 46.1432 35.3162 46.1468 34.6817C46.1691 33.3065 46.5962 31.9684 47.3748 30.8343C48.3525 29.4528 49.7335 28.4069 51.3288 27.8399C52.4429 27.4063 53.6268 27.1797 54.8224 27.171C56.2474 27.1505 57.6608 27.4313 58.9697 27.9949C60.2785 28.5586 61.4534 29.3923 62.4173 30.4416C63.437 31.4586 64.2444 32.668 64.7925 33.9995C65.3406 35.3309 65.6185 36.758 65.61 38.1977C65.61 41.2699 64.3432 44.0578 61.8095 46.5613C59.578 48.5283 56.6787 49.5688 53.7049 49.4699M68.7167 25.3241H37.1827L36.2188 22.3726H67.7835L68.7167 25.3241Z" stroke="#BCBEC0" stroke-width="0.78" stroke-linejoin="round"/>
<path d="M42.9299 61.4596C38.2677 61.3696 35.6071 60.0585 34.9481 57.5263C34.8811 57.1867 34.8461 56.8416 34.8438 56.4955C34.8438 53.5133 37.0234 51.6949 41.3826 51.0404C42.2013 50.979 42.9769 50.9484 43.7096 50.9484C44.6224 50.9484 45.5352 50.979 46.448 51.0404V47.6226L53.4412 48.4693V51.7338C59.3191 52.961 63.6599 54.0042 66.4638 54.8632L67.4768 57.3177C65.138 56.5586 62.7606 55.9236 60.3546 55.4155C57.5672 54.8019 55.2627 54.3928 53.4412 54.1883C52.9664 58.9867 49.4524 61.4023 42.8992 61.4351M43.1509 58.4836C43.8956 58.4958 44.615 58.2135 45.1525 57.6981C45.7146 57.1658 46.0729 56.4539 46.1656 55.6855C46.2649 55.0764 46.3244 54.4615 46.3436 53.8446C42.762 54.0533 40.9713 54.9778 40.9713 56.6182C40.9713 57.8454 41.6978 58.459 43.1509 58.459" fill="#BCBEC0"/>
<path d="M42.9299 61.4596C38.2677 61.3696 35.6071 60.0585 34.9481 57.5263C34.8811 57.1867 34.8461 56.8416 34.8438 56.4955C34.8438 53.5133 37.0234 51.6949 41.3826 51.0404C42.2013 50.979 42.9769 50.9484 43.7096 50.9484C44.6224 50.9484 45.5352 50.979 46.448 51.0404V47.6226L53.4412 48.4693V51.7338C59.3191 52.961 63.6599 54.0042 66.4638 54.8632L67.4768 57.3177C65.138 56.5586 62.7606 55.9236 60.3546 55.4155C57.5672 54.8019 55.2627 54.3928 53.4412 54.1883C52.9664 58.9867 49.4524 61.4023 42.8992 61.4351M43.1509 58.4836C43.8956 58.4958 44.615 58.2135 45.1525 57.6981C45.7146 57.1658 46.0729 56.4539 46.1656 55.6855C46.2649 55.0764 46.3244 54.4615 46.3436 53.8446C42.762 54.0533 40.9713 54.9778 40.9713 56.6182C40.9713 57.8454 41.6978 58.459 43.1509 58.459" stroke="#BCBEC0" stroke-width="0.78" stroke-linejoin="round"/>
<path d="M98.188 50.1939L91.1948 49.3471V43.616C91.147 41.8253 90.698 40.0681 89.8808 38.4739C89.2458 37.2747 88.2891 36.276 87.1179 35.5899C85.9192 34.9004 84.5395 34.59 83.1608 34.6995C81.782 34.809 80.4688 35.3334 79.3941 36.2035C78.7036 36.7166 78.1425 37.3837 77.7555 38.1518C77.3686 38.9199 77.1665 39.7677 77.1653 40.6276C77.1515 41.4755 77.4097 42.3056 77.9021 42.9962C78.3933 43.6835 79.2467 44.0414 80.4624 44.07C80.9814 44.0753 81.4937 43.9531 81.9544 43.7141C82.174 43.5967 82.3551 43.4185 82.476 43.2008C82.5968 42.9832 82.6523 42.7353 82.6359 42.4869C82.6359 41.8037 82.247 40.8649 81.4693 39.6704L85.2944 38.7438C86.3095 40.2043 86.8171 41.501 86.8171 42.6342C86.8257 43.35 86.6452 44.0555 86.2938 44.6793C85.9424 45.3031 85.4324 45.8232 84.8155 46.187C83.2669 47.1254 81.4807 47.5983 79.6704 47.5492C77.8081 47.6096 75.9655 47.1529 74.3471 46.23C72.9654 45.4225 71.8283 44.2563 71.0562 42.8551C70.3248 41.5261 69.9424 40.0335 69.9449 38.5168C69.9494 37.0075 70.3518 35.526 71.1115 34.2215C71.9604 32.7824 73.1992 31.6124 74.6848 30.8466C76.589 29.9012 78.6999 29.4476 80.8246 29.5273C85.7365 29.5273 89.1993 31.2414 91.2132 34.6694V25.3302H67.7837L66.875 22.3726H101.989L102.953 25.3241H98.188V50.1939Z" fill="#BCBEC0" stroke="#BCBEC0" stroke-width="0.78" stroke-linejoin="round"/>
<path d="M161.624 50.1937L154.631 49.3469V31.3618C154.703 29.8198 154.506 28.277 154.048 26.8027C153.639 25.8209 152.802 25.3279 151.537 25.3238H147.03V50.1876L140.037 49.3408V46.2113C140.037 43.8264 139.014 42.3803 136.967 41.8731C136.295 43.6589 135.219 45.2655 133.823 46.5672C131.585 48.5342 128.679 49.5706 125.7 49.4635C123.583 49.4423 121.497 48.9452 119.597 48.0092C117.445 46.9494 115.615 45.3328 114.299 43.3274C112.813 41.1674 111.816 38.3039 111.309 34.7367L113.992 33.037C114.079 35.2575 114.605 37.4389 115.539 39.4554C116.2 40.8637 117.245 42.0569 118.554 42.8978C119.663 43.5761 120.937 43.9389 122.238 43.9471C123.547 43.9495 124.836 43.6269 125.989 43.0083C127.085 42.4587 128.026 41.6446 128.727 40.6397C129.455 39.5423 129.878 38.2721 129.955 36.958C129.977 36.3859 129.876 35.8157 129.657 35.2863C129.439 34.7569 129.109 34.2806 128.691 33.8899C127.899 33.1341 126.844 32.716 125.75 32.7241C125.068 32.7245 124.394 32.8687 123.773 33.1475C123.2 33.3732 122.713 33.7723 122.379 34.2888C122.111 34.703 121.963 35.1827 121.949 35.6756C121.942 36.0751 122.077 36.4642 122.33 36.7739C122.463 36.9316 122.631 37.056 122.821 37.137C123.01 37.2179 123.217 37.2533 123.423 37.2403C124.315 37.14 125.163 36.8008 125.878 36.2585L127.248 38.6761C126.167 39.5802 124.807 40.085 123.398 40.1059C122.327 40.109 121.279 39.7974 120.383 39.21C119.437 38.5931 118.744 37.6566 118.431 36.5714C118.258 35.9606 118.171 35.3286 118.173 34.6938C118.195 33.3186 118.622 31.9803 119.401 30.8464C120.37 29.4391 121.755 28.3688 123.361 27.7844C124.495 27.353 125.697 27.1266 126.91 27.1156C128.291 27.1068 129.658 27.3841 130.927 27.9301C132.195 28.4762 133.336 29.279 134.278 30.288C136.32 32.3202 137.508 35.0551 137.599 37.9337C138.457 38.0389 139.289 38.2966 140.055 38.6945V25.33H109.184L108.27 22.3785H148.958C150.126 22.3543 151.294 22.422 152.452 22.581C153.259 22.7298 154.012 23.0921 154.631 23.6303V19.1079C155.642 19.1979 156.285 19.2654 156.559 19.3104C156.829 19.3534 157.235 19.4086 157.787 19.4699C157.845 20.2745 158.155 21.0406 158.671 21.6606C158.937 21.9124 159.252 22.1062 159.596 22.2298C159.941 22.3534 160.308 22.4041 160.673 22.3785H165.437L166.401 25.33H161.637L161.624 50.1937Z" fill="#BCBEC0" stroke="#BCBEC0" stroke-width="0.78" stroke-linejoin="round"/>
<path d="M198.267 50.1937L191.268 49.3408V32.6627C191.03 30.875 190.416 29.5701 189.426 28.7478C188.582 27.9847 187.493 27.5492 186.356 27.5206C185.245 27.5188 184.172 27.925 183.341 28.6619C182.887 29.0653 182.529 29.5664 182.297 30.1275C182.064 30.6887 181.961 31.2953 181.996 31.9018C181.959 32.3048 182.007 32.7112 182.139 33.0942C182.27 33.4771 182.481 33.8278 182.758 34.1231C183.157 34.5385 183.699 34.7865 184.274 34.8165C184.597 34.8211 184.911 34.7101 185.159 34.5035C185.287 34.3938 185.388 34.2558 185.454 34.1003C185.52 33.9449 185.549 33.7762 185.539 33.6077C185.43 32.8544 185.094 32.1523 184.575 31.595L187.921 30.7912C188.741 31.8954 189.217 33.2165 189.291 34.5895C189.303 35.1655 189.192 35.7377 188.965 36.267C188.737 36.7964 188.398 37.2706 187.971 37.6575C186.983 38.5246 185.734 39.0365 184.422 39.1118L183.507 39.1548C181.659 39.2296 179.851 38.6076 178.442 37.4121C177.01 38.6025 175.188 39.223 173.327 39.1548L172.412 39.1118C171.1 39.0365 169.851 38.5246 168.863 37.6575C168.437 37.2609 168.1 36.7773 167.877 36.2396C167.653 35.7018 167.548 35.1223 167.568 34.5404C167.647 33.1816 168.123 31.8759 168.937 30.785L172.283 31.5889C171.754 32.1391 171.416 32.8447 171.319 33.6015C171.309 33.7701 171.338 33.9387 171.404 34.0942C171.47 34.2496 171.572 34.3877 171.7 34.4974C171.966 34.7106 172.299 34.8217 172.639 34.8104C173.201 34.7792 173.728 34.5331 174.113 34.1231C174.383 33.8236 174.592 33.4738 174.727 33.0937C174.861 32.7136 174.92 32.3107 174.899 31.908L174.948 30.2082C174.948 29.4335 174.828 28.6635 174.592 27.9256C174.323 27.1484 173.783 26.4945 173.069 26.0847C172.292 25.5938 171.064 25.3484 169.385 25.3484H165.431L164.498 22.3723H172.658C175.089 22.4623 177.015 23.076 178.435 24.2132C179.856 22.986 181.849 22.3723 184.416 22.3723C187.555 22.3723 189.835 23.5791 191.255 25.9927V19.1079L193.281 19.3349L194.344 19.4699C194.434 20.2766 194.761 21.0387 195.283 21.6606C195.549 21.9124 195.864 22.1062 196.208 22.2298C196.553 22.3534 196.919 22.4041 197.285 22.3785H202.049L202.964 25.33H198.267V50.1937Z" fill="#BCBEC0" stroke="#BCBEC0" stroke-width="0.78" stroke-linejoin="round"/>
<path d="M212.904 50.1937L205.862 49.3469V31.3618C205.935 29.8198 205.737 28.2768 205.279 26.8027C204.89 25.8209 204.055 25.3279 202.774 25.3238H202.061L201.146 22.3723H201.859C203.652 22.3723 204.986 22.7814 205.862 23.5996V19.1079L209.005 19.4638C209.21 20.7769 209.607 21.5951 210.197 21.9183C211.051 22.2806 211.978 22.4402 212.904 22.3846H216.686L217.595 25.3361H212.886L212.904 50.1937Z" fill="#BCBEC0" stroke="#BCBEC0" stroke-width="0.78" stroke-linejoin="round"/>
<path d="M32.0318 48.93L25.0385 48.0832V42.3581C24.9923 40.5587 24.5412 38.7928 23.7185 37.1915C23.0832 35.9925 22.1265 34.9939 20.9556 34.3075C19.7568 33.618 18.3771 33.3076 16.9984 33.4171C15.6196 33.5267 14.3064 34.051 13.2317 34.9211C12.5387 35.4361 11.9761 36.1062 11.589 36.8777C11.202 37.6492 11.0012 38.5006 11.0029 39.3637C10.9891 40.2116 11.2473 41.0416 11.7397 41.7323C12.2309 42.4195 13.0843 42.7775 14.3 42.8061C14.819 42.8111 15.3312 42.6889 15.792 42.4502C16.0121 42.3334 16.1936 42.1553 16.3146 41.9374C16.4355 41.7196 16.4907 41.4715 16.4735 41.223C16.4735 40.5398 16.0846 39.601 15.3069 38.4065L19.1075 37.5106C20.1185 38.971 20.626 40.2678 20.6301 41.4009C20.6388 42.1168 20.4583 42.8222 20.1068 43.446C19.7554 44.0698 19.2455 44.5899 18.6286 44.9537C17.0801 45.8925 15.2938 46.3654 13.4834 46.316C11.6231 46.3758 9.78263 45.9191 8.16634 44.9967C6.78427 44.1897 5.64697 43.0234 4.87541 41.6218C4.14209 40.2933 3.75764 38.8008 3.75796 37.2835C3.76251 35.7742 4.16484 34.2927 4.9245 32.9882C5.77346 31.5491 7.01222 30.3791 8.49788 29.6133C10.402 28.6677 12.5129 28.2141 14.6377 28.2941C19.5495 28.2941 23.0124 30.0081 25.0263 33.4362V24.0662H1.62743L0.71875 21.1147H35.8323L36.7901 24.0662H32.0256L32.0318 48.93Z" fill="white" stroke="white" stroke-width="2.33" stroke-linejoin="round"/>
<path d="M67.3468 24.0662H35.8311L34.8672 21.1147H66.432L67.3468 24.0662ZM52.3472 48.2366C50.2295 48.2153 48.1437 47.7183 46.2443 46.7823C44.0922 45.7182 42.2647 44.0973 40.9518 42.0882C39.4659 39.9282 38.4692 37.0647 37.9616 33.4975L40.6448 31.7978C40.731 34.0185 41.2569 36.2 42.192 38.2162C42.8525 39.6245 43.8975 40.8177 45.2066 41.6586C46.3159 42.3375 47.5898 42.7003 48.8905 42.7079C50.1996 42.7108 51.4888 42.3882 52.6419 41.7691C53.7377 41.2195 54.6789 40.4054 55.3803 39.4005C56.1289 38.311 56.5661 37.0381 56.6451 35.7188C56.6664 35.1445 56.562 34.5724 56.3393 34.0425C56.1166 33.5126 55.7809 33.0377 55.3557 32.6507C54.5523 31.8989 53.4908 31.4838 52.3902 31.491C51.7087 31.4916 51.0351 31.6359 50.4132 31.9144C49.8406 32.1397 49.3531 32.5389 49.0194 33.0557C48.7519 33.47 48.6032 33.9496 48.5896 34.4425C48.5824 34.8421 48.7173 35.2314 48.9703 35.5409C49.1021 35.6988 49.269 35.8238 49.4577 35.9058C49.6463 35.9879 49.8516 36.0247 50.0571 36.0134C50.9492 35.9131 51.7977 35.5739 52.513 35.0316L53.8822 37.4492C52.8226 38.357 51.4772 38.8631 50.0816 38.8789C48.9926 38.8874 47.9251 38.5759 47.0117 37.9831C46.0656 37.3657 45.3727 36.4294 45.0593 35.3445C44.8885 34.7333 44.8038 34.1014 44.8075 33.4668C44.8295 32.0916 45.2566 30.7534 46.0355 29.6195C47.0132 28.2379 48.3942 27.1921 49.9895 26.625C51.1036 26.1915 52.2875 25.9648 53.4831 25.9562C54.9042 25.9367 56.3134 26.2168 57.6189 26.7782C58.9243 27.3396 60.0968 28.1698 61.0596 29.2145C62.0794 30.2315 62.8867 31.4408 63.4348 32.7723C63.9829 34.1038 64.2608 35.5309 64.2523 36.9706C64.2523 40.0428 62.9854 42.8306 60.4518 45.3342C58.2202 47.3012 55.321 48.3417 52.3472 48.2427" fill="white"/>
<path d="M52.3472 48.2366C50.2295 48.2153 48.1437 47.7183 46.2443 46.7823C44.0922 45.7182 42.2647 44.0973 40.9518 42.0882C39.4659 39.9282 38.4692 37.0647 37.9616 33.4975L40.6448 31.7978C40.731 34.0185 41.2569 36.2 42.192 38.2162C42.8525 39.6245 43.8975 40.8177 45.2066 41.6586C46.3159 42.3375 47.5898 42.7003 48.8905 42.7079C50.1996 42.7108 51.4888 42.3882 52.6419 41.7691C53.7377 41.2195 54.6789 40.4054 55.3803 39.4005C56.1289 38.311 56.5661 37.0381 56.6451 35.7188C56.6664 35.1445 56.562 34.5724 56.3393 34.0425C56.1166 33.5126 55.7809 33.0377 55.3557 32.6507C54.5523 31.8989 53.4908 31.4838 52.3902 31.491C51.7087 31.4916 51.0351 31.6359 50.4132 31.9144C49.8406 32.1397 49.3531 32.5389 49.0194 33.0557C48.7519 33.47 48.6032 33.9496 48.5896 34.4425C48.5824 34.8421 48.7173 35.2314 48.9703 35.5409C49.1021 35.6988 49.269 35.8238 49.4577 35.9058C49.6463 35.9879 49.8516 36.0247 50.0571 36.0134C50.9492 35.9131 51.7977 35.5739 52.513 35.0316L53.8822 37.4492C52.8226 38.357 51.4772 38.8631 50.0816 38.8789C48.9926 38.8874 47.9251 38.5759 47.0117 37.9831C46.0656 37.3657 45.3727 36.4294 45.0593 35.3445C44.8885 34.7333 44.8038 34.1014 44.8075 33.4668C44.8295 32.0916 45.2566 30.7534 46.0355 29.6195C47.0132 28.2379 48.3942 27.1921 49.9895 26.625C51.1036 26.1915 52.2875 25.9648 53.4831 25.9562C54.9042 25.9367 56.3134 26.2168 57.6189 26.7782C58.9243 27.3396 60.0968 28.1698 61.0596 29.2145C62.0794 30.2315 62.8867 31.4408 63.4348 32.7723C63.9829 34.1038 64.2608 35.5309 64.2523 36.9706C64.2523 40.0428 62.9854 42.8306 60.4518 45.3342C58.2202 47.3012 55.321 48.3417 52.3472 48.2427M67.3468 24.0662H35.8311L34.8672 21.1147H66.432L67.3468 24.0662Z" stroke="white" stroke-width="2.33" stroke-linejoin="round"/>
<path d="M41.6037 60.2019C36.9416 60.1119 34.281 58.8008 33.622 56.2686C33.5555 55.9289 33.5205 55.5838 33.5176 55.2377C33.5176 52.2555 35.6972 50.4372 40.0565 49.7827C40.8751 49.7213 41.6528 49.6906 42.3896 49.6906C43.3024 49.6906 44.2152 49.7213 45.128 49.7827V46.3955L52.1396 47.23V50.4945C58.0175 51.7217 62.3583 52.7648 65.1622 53.6239L66.1752 56.0784C63.8362 55.32 61.4588 54.685 59.0531 54.1762C56.2656 53.5666 53.9611 53.1576 52.1396 52.9489C51.6648 57.7474 48.1529 60.163 41.6037 60.1957M41.8554 57.2442C42.6002 57.2564 43.3196 56.9742 43.857 56.4588C44.4192 55.9265 44.7775 55.2146 44.8701 54.4462C44.9696 53.8371 45.0291 53.2222 45.0482 52.6053C41.4666 52.8139 39.6758 53.7385 39.6758 55.3789C39.6758 56.6061 40.4024 57.2197 41.8554 57.2197" fill="white"/>
<path d="M41.6037 60.2019C36.9416 60.1119 34.281 58.8008 33.622 56.2686C33.5555 55.9289 33.5205 55.5838 33.5176 55.2377C33.5176 52.2555 35.6972 50.4372 40.0565 49.7827C40.8751 49.7213 41.6528 49.6906 42.3896 49.6906C43.3024 49.6906 44.2152 49.7213 45.128 49.7827V46.3955L52.1396 47.23V50.4945C58.0175 51.7217 62.3583 52.7648 65.1622 53.6239L66.1752 56.0784C63.8362 55.32 61.4588 54.685 59.0531 54.1762C56.2656 53.5666 53.9611 53.1576 52.1396 52.9489C51.6648 57.7474 48.1529 60.163 41.6037 60.1957M41.8554 57.2442C42.6002 57.2564 43.3196 56.9742 43.857 56.4588C44.4192 55.9265 44.7775 55.2146 44.8701 54.4462C44.9696 53.8371 45.0291 53.2222 45.0482 52.6053C41.4666 52.8139 39.6758 53.7385 39.6758 55.3789C39.6758 56.6061 40.4024 57.2197 41.8554 57.2197" stroke="white" stroke-width="2.33" stroke-linejoin="round"/>
<path d="M96.8367 48.93L89.8435 48.0832V42.3581C89.7971 40.5587 89.3459 38.7929 88.5235 37.1915C87.8885 35.9923 86.9317 34.9936 85.7605 34.3075C84.5618 33.618 83.1822 33.3076 81.8034 33.4171C80.4246 33.5267 79.1114 34.051 78.0367 34.9211C77.3461 35.4342 76.7851 36.1014 76.3982 36.8695C76.0112 37.6376 75.8091 38.4853 75.8079 39.3453C75.7941 40.1932 76.0523 41.0232 76.5447 41.7139C77.0359 42.4011 77.8893 42.759 79.105 42.7877C79.6239 42.7927 80.1362 42.6705 80.5969 42.4318C80.8166 42.3143 80.9977 42.1361 81.1185 41.9185C81.2394 41.7008 81.295 41.4529 81.2785 41.2046C81.2785 40.5214 80.8896 39.5826 80.1119 38.388L83.9125 37.4922C84.9235 38.9526 85.431 40.2494 85.4351 41.3825C85.4438 42.0983 85.2633 42.8038 84.9118 43.4276C84.5604 44.0514 84.0504 44.5715 83.4335 44.9353C81.8852 45.8744 80.0988 46.3473 78.2884 46.2976C76.4281 46.3574 74.5876 45.9007 72.9713 44.9783C71.5874 44.1717 70.448 43.0054 69.6742 41.6034C68.9414 40.2747 68.557 38.7823 68.5568 37.2651C68.5613 35.7558 68.9637 34.2743 69.7234 32.9698C70.5721 31.5305 71.8109 30.3605 73.2967 29.5949C75.2009 28.6493 77.3118 28.1957 79.4365 28.2757C84.3484 28.2757 87.8112 29.9897 89.8251 33.4178V24.0662H66.4324L65.5176 21.1147H100.643L101.607 24.0662H96.8367V48.93Z" fill="white" stroke="white" stroke-width="2.33" stroke-linejoin="round"/>
<path d="M32.0318 48.93L25.0385 48.0832V42.3581C24.9923 40.5587 24.5412 38.7928 23.7185 37.1915C23.0832 35.9925 22.1265 34.9939 20.9556 34.3075C19.7568 33.618 18.3771 33.3076 16.9984 33.4171C15.6196 33.5267 14.3064 34.051 13.2317 34.9211C12.5387 35.4361 11.9761 36.1062 11.589 36.8777C11.202 37.6492 11.0012 38.5006 11.0029 39.3637C10.9891 40.2116 11.2473 41.0416 11.7397 41.7323C12.2309 42.4195 13.0843 42.7775 14.3 42.8061C14.819 42.8111 15.3312 42.6889 15.792 42.4502C16.0121 42.3334 16.1936 42.1553 16.3146 41.9374C16.4355 41.7196 16.4907 41.4715 16.4735 41.223C16.4735 40.5398 16.0846 39.601 15.3069 38.4065L19.1075 37.5106C20.1185 38.971 20.626 40.2678 20.6301 41.4009C20.6388 42.1168 20.4583 42.8222 20.1068 43.446C19.7554 44.0698 19.2455 44.5899 18.6286 44.9537C17.0801 45.8925 15.2938 46.3654 13.4834 46.316C11.6231 46.3758 9.78263 45.9191 8.16634 44.9967C6.78427 44.1897 5.64697 43.0234 4.87541 41.6218C4.14209 40.2933 3.75764 38.8008 3.75796 37.2835C3.76251 35.7742 4.16484 34.2927 4.9245 32.9882C5.77346 31.5491 7.01222 30.3791 8.49788 29.6133C10.402 28.6677 12.5129 28.2141 14.6377 28.2941C19.5495 28.2941 23.0124 30.0081 25.0263 33.4362V24.0662H1.62743L0.71875 21.1147H35.8323L36.7901 24.0662H32.0256L32.0318 48.93Z" fill="#ED1C24"/>
<path d="M67.3468 24.0662H35.8311L34.8672 21.1147H66.432L67.3468 24.0662ZM52.3472 48.2366C50.2295 48.2153 48.1437 47.7183 46.2443 46.7823C44.0922 45.7182 42.2647 44.0973 40.9518 42.0882C39.4659 39.9282 38.4692 37.0647 37.9616 33.4975L40.6448 31.7978C40.731 34.0185 41.2569 36.2 42.192 38.2162C42.8525 39.6245 43.8975 40.8177 45.2066 41.6586C46.3159 42.3375 47.5898 42.7003 48.8905 42.7079C50.1996 42.7108 51.4888 42.3882 52.6419 41.7691C53.7377 41.2195 54.6789 40.4054 55.3803 39.4005C56.1289 38.311 56.5661 37.0381 56.6451 35.7188C56.6664 35.1445 56.562 34.5724 56.3393 34.0425C56.1166 33.5126 55.7809 33.0377 55.3557 32.6507C54.5523 31.8989 53.4908 31.4838 52.3902 31.491C51.7087 31.4916 51.0351 31.6359 50.4132 31.9144C49.8406 32.1397 49.3531 32.5389 49.0194 33.0557C48.7519 33.47 48.6032 33.9496 48.5896 34.4425C48.5824 34.8421 48.7173 35.2314 48.9703 35.5409C49.1021 35.6988 49.269 35.8238 49.4577 35.9058C49.6463 35.9879 49.8516 36.0247 50.0571 36.0134C50.9492 35.9131 51.7977 35.5739 52.513 35.0316L53.8822 37.4492C52.8226 38.357 51.4772 38.8631 50.0816 38.8789C48.9926 38.8874 47.9251 38.5759 47.0117 37.9831C46.0656 37.3657 45.3727 36.4294 45.0593 35.3445C44.8885 34.7333 44.8038 34.1014 44.8075 33.4668C44.8295 32.0916 45.2566 30.7534 46.0355 29.6195C47.0132 28.2379 48.3942 27.1921 49.9895 26.625C51.1036 26.1915 52.2875 25.9648 53.4831 25.9562C54.9042 25.9367 56.3134 26.2168 57.6189 26.7782C58.9243 27.3396 60.0968 28.1698 61.0596 29.2145C62.0794 30.2315 62.8867 31.4408 63.4348 32.7723C63.9829 34.1038 64.2608 35.5309 64.2523 36.9706C64.2523 40.0428 62.9854 42.8306 60.4518 45.3342C58.2202 47.3012 55.321 48.3417 52.3472 48.2427" fill="#ED1C24"/>
<path d="M41.6037 60.2019C36.9416 60.1119 34.281 58.8008 33.622 56.2686C33.5555 55.9289 33.5205 55.5838 33.5176 55.2377C33.5176 52.2555 35.6972 50.4372 40.0565 49.7827C40.8751 49.7213 41.6528 49.6906 42.3896 49.6906C43.3024 49.6906 44.2152 49.7213 45.128 49.7827V46.3955L52.1396 47.23V50.4945C58.0175 51.7217 62.3583 52.7648 65.1622 53.6239L66.1752 56.0784C63.8362 55.32 61.4588 54.685 59.0531 54.1762C56.2656 53.5666 53.9611 53.1576 52.1396 52.9489C51.6648 57.7474 48.1529 60.163 41.6037 60.1957M41.8554 57.2442C42.6002 57.2564 43.3196 56.9742 43.857 56.4588C44.4192 55.9265 44.7775 55.2146 44.8701 54.4462C44.9696 53.8371 45.0291 53.2222 45.0482 52.6053C41.4666 52.8139 39.6758 53.7385 39.6758 55.3789C39.6758 56.6061 40.4024 57.2197 41.8554 57.2197" fill="#ED1C24"/>
<path d="M96.8367 48.93L89.8435 48.0832V42.3581C89.7971 40.5587 89.3459 38.7929 88.5235 37.1915C87.8885 35.9923 86.9317 34.9936 85.7605 34.3075C84.5618 33.618 83.1822 33.3076 81.8034 33.4171C80.4246 33.5267 79.1114 34.051 78.0367 34.9211C77.3461 35.4342 76.7851 36.1014 76.3982 36.8695C76.0112 37.6376 75.8091 38.4853 75.8079 39.3453C75.7941 40.1932 76.0523 41.0232 76.5447 41.7139C77.0359 42.4011 77.8893 42.759 79.105 42.7877C79.6239 42.7927 80.1362 42.6705 80.5969 42.4318C80.8166 42.3143 80.9977 42.1361 81.1185 41.9185C81.2394 41.7008 81.295 41.4529 81.2785 41.2046C81.2785 40.5214 80.8896 39.5826 80.1119 38.388L83.9125 37.4922C84.9235 38.9526 85.431 40.2494 85.4351 41.3825C85.4438 42.0983 85.2633 42.8038 84.9118 43.4276C84.5604 44.0514 84.0504 44.5715 83.4335 44.9353C81.8852 45.8744 80.0988 46.3473 78.2884 46.2976C76.4281 46.3574 74.5876 45.9007 72.9713 44.9783C71.5874 44.1717 70.448 43.0054 69.6742 41.6034C68.9414 40.2747 68.557 38.7823 68.5568 37.2651C68.5613 35.7558 68.9637 34.2743 69.7234 32.9698C70.5721 31.5305 71.8109 30.3605 73.2967 29.5949C75.2009 28.6493 77.3118 28.1957 79.4365 28.2757C84.3484 28.2757 87.8112 29.9897 89.8251 33.4178V24.0662H66.4324L65.5176 21.1147H100.643L101.607 24.0662H96.8367V48.93Z" fill="#ED1C24"/>
<path d="M160.273 48.9298L153.28 48.083V30.104C153.352 28.5619 153.155 27.019 152.696 25.5448C152.308 24.5631 151.473 24.0701 150.191 24.066H145.685V48.9298L138.71 48.083V44.9535C138.71 42.5686 137.687 41.1225 135.64 40.6153C134.968 42.401 133.892 44.0075 132.496 45.3094C130.265 47.2764 127.366 48.3169 124.392 48.218C122.272 48.1976 120.184 47.7006 118.283 46.7637C116.106 45.7098 114.254 44.088 112.923 42.0695C111.437 39.9096 110.44 37.0461 109.933 33.4789L112.616 31.7792C112.703 33.9997 113.229 36.1811 114.163 38.1976C114.838 39.6047 115.898 40.7919 117.221 41.6216C118.33 42.2999 119.604 42.6627 120.904 42.6709C122.213 42.6733 123.503 42.3507 124.656 41.7321C125.752 41.1825 126.693 40.3684 127.394 39.3635C128.121 38.2657 128.544 36.9957 128.622 35.6818C128.644 35.1096 128.542 34.5395 128.324 34.0101C128.106 33.4807 127.776 33.0044 127.357 32.6137C126.565 31.8601 125.51 31.4442 124.416 31.454C123.735 31.4544 123.061 31.5987 122.439 31.8774C121.867 32.1027 121.379 32.5019 121.046 33.0187C120.778 33.4327 120.629 33.9125 120.616 34.4055C120.609 34.805 120.744 35.1941 120.997 35.5038C121.129 35.6607 121.296 35.7845 121.485 35.8655C121.673 35.9464 121.878 35.9823 122.083 35.9702C122.976 35.8705 123.824 35.5312 124.539 34.9884L125.908 37.4061C124.827 38.3101 123.468 38.815 122.059 38.8358C120.988 38.8193 119.946 38.4885 119.063 37.8847C118.116 37.2682 117.423 36.3315 117.11 35.2461C116.938 34.6352 116.851 34.0032 116.852 33.3685C116.875 31.9933 117.302 30.6552 118.08 29.5211C119.058 28.1401 120.439 27.0944 122.034 26.5266C123.168 26.0954 124.37 25.8689 125.583 25.8578C126.964 25.849 128.331 26.1263 129.6 26.6723C130.868 27.2184 132.009 28.0212 132.951 29.0302C134.987 31.0672 136.168 33.804 136.254 36.682C137.111 36.7874 137.943 37.0451 138.71 37.4429V24.066H107.833L106.918 21.1145H147.606C148.775 21.0905 149.943 21.1582 151.1 21.317C151.907 21.4655 152.66 21.8279 153.28 22.3663V17.8501C154.295 17.9401 154.937 18.0076 155.208 18.0526C155.478 18.0976 155.887 18.1487 156.436 18.206C156.495 19.0104 156.804 19.7763 157.32 20.3966C157.585 20.6484 157.9 20.8423 158.245 20.9659C158.59 21.0895 158.956 21.1401 159.321 21.1145H164.086L165.05 24.066H160.285L160.273 48.9298Z" fill="white" stroke="white" stroke-width="2.33" stroke-linejoin="round"/>
<path d="M196.904 48.9298L189.911 48.083V31.4049C189.674 29.6172 189.06 28.3123 188.069 27.49C187.225 26.7274 186.136 26.292 184.999 26.2628C183.892 26.2531 182.82 26.6481 181.985 27.3734C181.53 27.7768 181.173 28.2779 180.94 28.839C180.707 29.4002 180.604 30.0068 180.64 30.6133C180.604 31.0153 180.653 31.4204 180.784 31.8022C180.915 32.1839 181.125 32.5337 181.401 32.8285C181.797 33.2524 182.339 33.5093 182.918 33.5464C183.24 33.5504 183.554 33.4395 183.802 33.2335C183.93 33.1237 184.032 32.9857 184.098 32.8302C184.164 32.6748 184.193 32.5062 184.183 32.3376C184.073 31.5846 183.737 30.8827 183.219 30.3249L186.565 29.5211C187.385 30.6252 187.861 31.9463 187.934 33.3194C187.947 33.8955 187.836 34.4676 187.608 34.9969C187.38 35.5263 187.041 36.0005 186.614 36.3875C185.626 37.2541 184.377 37.7659 183.065 37.8417L182.15 37.8847C180.303 37.9596 178.495 37.3375 177.085 36.142C175.651 37.3338 173.828 37.9544 171.964 37.8847L171.056 37.8417C169.744 37.7659 168.494 37.2541 167.507 36.3875C167.078 35.9932 166.738 35.5113 166.512 34.9746C166.285 34.4379 166.176 33.8588 166.193 33.2764C166.275 31.9192 166.753 30.6157 167.568 29.5272L170.914 30.3311C170.386 30.8816 170.048 31.587 169.95 32.3437C169.94 32.5123 169.969 32.6809 170.035 32.8364C170.102 32.9918 170.203 33.1298 170.331 33.2396C170.597 33.4528 170.93 33.5639 171.271 33.5525C171.839 33.5238 172.374 33.2751 172.763 32.8592C173.033 32.5597 173.241 32.2099 173.376 31.8298C173.511 31.4497 173.57 31.0467 173.548 30.644L173.598 28.9443C173.597 28.1696 173.477 27.3996 173.241 26.6616C172.971 25.8855 172.431 25.2323 171.719 24.8208C170.941 24.3299 169.713 24.0844 168.035 24.0844H164.081L163.166 21.1329H171.326C173.757 21.2229 175.683 21.8366 177.103 22.9738C178.524 21.7466 180.517 21.1329 183.084 21.1329C186.223 21.1329 188.503 22.3397 189.923 24.7533V17.8501L191.949 18.071L193.012 18.206C193.107 19.0167 193.44 19.781 193.969 20.4027C194.235 20.6546 194.55 20.8484 194.895 20.972C195.239 21.0956 195.606 21.1462 195.971 21.1207H200.723L201.638 24.0722H196.929L196.904 48.9298Z" fill="white" stroke="white" stroke-width="2.33" stroke-linejoin="round"/>
<path d="M211.548 48.9298L204.505 48.083V30.104C204.577 28.562 204.38 27.0192 203.922 25.5448C203.513 24.5631 202.678 24.0701 201.417 24.066H200.723L199.814 21.1145H200.527C202.315 21.1145 203.65 21.5236 204.53 22.3418V17.8501L207.673 18.206C207.878 19.5191 208.275 20.3373 208.865 20.6605C209.721 21.023 210.65 21.1827 211.578 21.1268H215.379L216.294 24.0783H211.584L211.548 48.9298Z" fill="white" stroke="white" stroke-width="2.33" stroke-linejoin="round"/>
<path d="M160.273 48.9298L153.28 48.083V30.104C153.352 28.5619 153.155 27.019 152.696 25.5448C152.308 24.5631 151.473 24.0701 150.191 24.066H145.685V48.9298L138.71 48.083V44.9535C138.71 42.5686 137.687 41.1225 135.64 40.6153C134.968 42.401 133.892 44.0075 132.496 45.3094C130.265 47.2764 127.366 48.3169 124.392 48.218C122.272 48.1976 120.184 47.7006 118.283 46.7637C116.106 45.7098 114.254 44.088 112.923 42.0695C111.437 39.9096 110.44 37.0461 109.933 33.4789L112.616 31.7792C112.703 33.9997 113.229 36.1811 114.163 38.1976C114.838 39.6047 115.898 40.7919 117.221 41.6216C118.33 42.2999 119.604 42.6627 120.904 42.6709C122.213 42.6733 123.503 42.3507 124.656 41.7321C125.752 41.1825 126.693 40.3684 127.394 39.3635C128.121 38.2657 128.544 36.9957 128.622 35.6818C128.644 35.1096 128.542 34.5395 128.324 34.0101C128.106 33.4807 127.776 33.0044 127.357 32.6137C126.565 31.8601 125.51 31.4442 124.416 31.454C123.735 31.4544 123.061 31.5987 122.439 31.8774C121.867 32.1027 121.379 32.5019 121.046 33.0187C120.778 33.4327 120.629 33.9125 120.616 34.4055C120.609 34.805 120.744 35.1941 120.997 35.5038C121.129 35.6607 121.296 35.7845 121.485 35.8655C121.673 35.9464 121.878 35.9823 122.083 35.9702C122.976 35.8705 123.824 35.5312 124.539 34.9884L125.908 37.4061C124.827 38.3101 123.468 38.815 122.059 38.8358C120.988 38.8193 119.946 38.4885 119.063 37.8847C118.116 37.2682 117.423 36.3315 117.11 35.2461C116.938 34.6352 116.851 34.0032 116.852 33.3685C116.875 31.9933 117.302 30.6552 118.08 29.5211C119.058 28.1401 120.439 27.0944 122.034 26.5266C123.168 26.0954 124.37 25.8689 125.583 25.8578C126.964 25.849 128.331 26.1263 129.6 26.6723C130.868 27.2184 132.009 28.0212 132.951 29.0302C134.987 31.0672 136.168 33.804 136.254 36.682C137.111 36.7874 137.943 37.0451 138.71 37.4429V24.066H107.833L106.918 21.1145H147.606C148.775 21.0905 149.943 21.1582 151.1 21.317C151.907 21.4655 152.66 21.8279 153.28 22.3663V17.8501C154.295 17.9401 154.937 18.0076 155.208 18.0526C155.478 18.0976 155.887 18.1487 156.436 18.206C156.495 19.0104 156.804 19.7763 157.32 20.3966C157.585 20.6484 157.9 20.8423 158.245 20.9659C158.59 21.0895 158.956 21.1401 159.321 21.1145H164.086L165.05 24.066H160.285L160.273 48.9298Z" fill="#002c7f"/>
<path d="M196.904 48.9298L189.911 48.083V31.4049C189.674 29.6172 189.06 28.3123 188.069 27.49C187.225 26.7274 186.136 26.292 184.999 26.2628C183.892 26.2531 182.82 26.6481 181.985 27.3734C181.53 27.7768 181.173 28.2779 180.94 28.839C180.707 29.4002 180.604 30.0068 180.64 30.6133C180.604 31.0153 180.653 31.4204 180.784 31.8022C180.915 32.1839 181.125 32.5337 181.401 32.8285C181.797 33.2524 182.339 33.5093 182.918 33.5464C183.24 33.5504 183.554 33.4395 183.802 33.2335C183.93 33.1237 184.032 32.9857 184.098 32.8302C184.164 32.6748 184.193 32.5062 184.183 32.3376C184.073 31.5846 183.737 30.8827 183.219 30.3249L186.565 29.5211C187.385 30.6252 187.861 31.9463 187.934 33.3194C187.947 33.8955 187.836 34.4676 187.608 34.9969C187.38 35.5263 187.041 36.0005 186.614 36.3875C185.626 37.2541 184.377 37.7659 183.065 37.8417L182.15 37.8847C180.303 37.9596 178.495 37.3375 177.085 36.142C175.651 37.3338 173.828 37.9544 171.964 37.8847L171.056 37.8417C169.744 37.7659 168.494 37.2541 167.507 36.3875C167.078 35.9932 166.738 35.5113 166.512 34.9746C166.285 34.4379 166.176 33.8588 166.193 33.2764C166.275 31.9192 166.753 30.6157 167.568 29.5272L170.914 30.3311C170.386 30.8816 170.048 31.587 169.95 32.3437C169.94 32.5123 169.969 32.6809 170.035 32.8364C170.102 32.9918 170.203 33.1298 170.331 33.2396C170.597 33.4528 170.93 33.5639 171.271 33.5525C171.839 33.5238 172.374 33.2751 172.763 32.8592C173.033 32.5597 173.241 32.2099 173.376 31.8298C173.511 31.4497 173.57 31.0467 173.548 30.644L173.598 28.9443C173.597 28.1696 173.477 27.3996 173.241 26.6616C172.971 25.8855 172.431 25.2323 171.719 24.8208C170.941 24.3299 169.713 24.0844 168.035 24.0844H164.081L163.166 21.1329H171.326C173.757 21.2229 175.683 21.8366 177.103 22.9738C178.524 21.7466 180.517 21.1329 183.084 21.1329C186.223 21.1329 188.503 22.3397 189.923 24.7533V17.8501L191.949 18.071L193.012 18.206C193.107 19.0167 193.44 19.781 193.969 20.4027C194.235 20.6546 194.55 20.8484 194.895 20.972C195.239 21.0956 195.606 21.1462 195.971 21.1207H200.723L201.638 24.0722H196.929L196.904 48.9298Z" fill="#002c7f"/>
<path d="M211.548 48.9298L204.505 48.083V30.104C204.577 28.562 204.38 27.0192 203.922 25.5448C203.513 24.5631 202.678 24.0701 201.417 24.066H200.723L199.814 21.1145H200.527C202.315 21.1145 203.65 21.5236 204.53 22.3418V17.8501L207.673 18.206C207.878 19.5191 208.275 20.3373 208.865 20.6605C209.721 21.023 210.65 21.1827 211.578 21.1268H215.379L216.294 24.0783H211.584L211.548 48.9298Z" fill="#002c7f"/>
<path d="M218.001 16.2671H49.6719V17.3286H218.001V16.2671Z" fill="#ED1C24"/>
<path d="M109.393 53.8999C110.842 54.5054 111.567 55.6692 111.567 57.3914C111.596 58.0276 111.463 58.6607 111.18 59.2315C110.898 59.8024 110.475 60.2924 109.952 60.6558C108.875 61.4208 106.794 61.8033 103.708 61.8033H103.579H103.438H103.1C102.92 61.8033 102.715 61.8033 102.486 61.8033C102.257 61.8033 102.052 61.7788 101.872 61.7297C101.44 61.6459 101.025 61.4903 100.644 61.2695C100.236 61.0242 99.9357 60.6341 99.8029 60.1772C99.9642 60.3874 100.157 60.5715 100.374 60.7233C100.567 60.8624 100.773 60.9836 100.988 61.0854C101.283 61.2141 101.592 61.3088 101.909 61.3676L102.572 61.4842V55.5996C102.577 55.4507 102.606 55.3036 102.658 55.164C102.718 54.9898 102.794 54.8214 102.885 54.6608C102.942 54.5429 103.006 54.4282 103.075 54.3172C103.145 54.2067 103.219 54.1004 103.296 53.9981C103.374 53.8958 103.466 53.7731 103.573 53.6299C103.645 53.539 103.723 53.4529 103.806 53.3722C102.536 53.3446 101.266 53.4495 100.018 53.6852C99.6118 53.7226 99.2358 53.9151 98.9682 54.2225C98.7006 54.53 98.562 54.9287 98.5811 55.3358C98.5577 55.7999 98.6918 56.2583 98.9617 56.6367C99.3006 57.0307 99.7191 57.3485 100.19 57.5693C100.37 57.6634 100.574 57.7575 100.804 57.8516L101.497 58.1461C100.528 58.2174 99.5623 57.9578 98.7591 57.4098C98.5029 57.2164 98.294 56.9673 98.1483 56.6813C98.0026 56.3954 97.9238 56.08 97.918 55.7592C97.918 55.6855 97.918 55.6119 97.918 55.5383C97.918 55.4646 97.918 55.391 97.918 55.3174C98.0125 54.9675 98.1816 54.6421 98.4137 54.3635C98.6458 54.085 98.9354 53.8599 99.2626 53.7036C100.081 53.2127 101.719 52.9672 104.174 52.9672L104.426 52.7954V52.9611C106.128 52.9434 107.816 53.2625 109.393 53.8999ZM104.481 53.3477V59.4838C104.48 59.5884 104.461 59.6921 104.426 59.7906C104.385 59.9075 104.334 60.0204 104.273 60.1281C104.207 60.2386 104.133 60.349 104.052 60.4595L103.818 60.7724L103.432 61.1897L103.186 61.4474C104.755 61.4745 106.321 61.2866 107.84 60.889C109.146 60.5208 109.798 59.6025 109.798 58.1339C109.834 56.9235 109.474 55.7344 108.773 54.7467C108.09 53.814 106.657 53.3477 104.475 53.3477H104.481Z" fill="#ED1C24"/>
<path d="M116.196 55.2256H117.424V58.9932C117.425 59.0149 117.432 59.036 117.442 59.055C117.453 59.074 117.468 59.0906 117.485 59.1036C117.525 59.1182 117.568 59.1182 117.608 59.1036C117.735 59.0967 117.859 59.0676 117.976 59.0177L118.486 58.8213L118.388 58.9502C118.348 58.9964 118.305 59.0395 118.259 59.0791C118.132 59.1905 117.994 59.2891 117.847 59.3736C117.693 59.4658 117.525 59.534 117.35 59.5761H117.184H117.037C116.976 59.5825 116.914 59.5825 116.853 59.5761C116.759 59.5521 116.668 59.5171 116.583 59.4718C116.456 59.4005 116.342 59.3093 116.245 59.2018C116.145 59.0883 116.09 58.9419 116.091 58.7907V58.2323L115.723 58.5145C115.555 58.6414 115.367 58.7723 115.158 58.9073L114.931 59.0607L114.691 59.1957C114.496 59.3136 114.291 59.4142 114.077 59.4963C113.918 59.5664 113.748 59.6059 113.574 59.6129H113.537H113.482C113.179 59.5759 112.902 59.4244 112.708 59.1895C112.464 58.8941 112.341 58.5168 112.364 58.1341C112.343 57.7078 112.433 57.2832 112.626 56.9022C112.818 56.5213 113.107 56.1972 113.463 55.9619C114.276 55.4435 115.227 55.1846 116.19 55.2194L116.196 55.2256ZM114.427 56.0539C114.062 56.3408 113.819 56.755 113.746 57.2137C113.742 57.2401 113.742 57.267 113.746 57.2934V57.3732C113.731 57.5083 113.746 57.6449 113.788 57.7739C113.83 57.903 113.9 58.0216 113.992 58.1218C114.161 58.2688 114.381 58.3437 114.605 58.3305C114.727 58.3288 114.849 58.3144 114.968 58.2875C115.099 58.2594 115.228 58.2225 115.355 58.177C115.488 58.1293 115.617 58.0719 115.741 58.0052C115.87 57.9377 115.987 57.8641 116.104 57.7905V55.5078C115.495 55.4788 114.897 55.673 114.421 56.0539H114.427Z" fill="#ED1C24"/>
<path d="M118.725 56.0415C118.764 55.9818 118.809 55.9263 118.86 55.8759C118.944 55.7897 119.037 55.7116 119.136 55.6427C119.265 55.5499 119.401 55.4659 119.541 55.3911C119.683 55.315 119.834 55.2553 119.989 55.2132H120.131H120.272C120.373 55.2047 120.475 55.2172 120.571 55.2499C120.667 55.2826 120.756 55.3349 120.831 55.4034C120.945 55.5195 121.021 55.6669 121.052 55.8268C121.049 55.8615 121.049 55.8964 121.052 55.9311C121.054 55.9658 121.054 56.0007 121.052 56.0354V58.8887C121.057 58.9778 121.096 59.0615 121.162 59.1219C121.215 59.1617 121.28 59.1833 121.346 59.1833C121.397 59.1906 121.449 59.1906 121.5 59.1833L121.672 59.1158L121.758 59.0728L121.844 59.0176L121.948 58.9562L122.04 58.9071C121.828 59.2253 121.524 59.4715 121.168 59.6128C120.982 59.6643 120.79 59.6951 120.597 59.7048C120.485 59.7129 120.372 59.6968 120.266 59.6577C120.16 59.6185 120.063 59.5572 119.983 59.4778C119.847 59.3408 119.77 59.1557 119.768 58.9624V55.9495C119.769 55.9018 119.752 55.8556 119.719 55.8206C119.697 55.8 119.671 55.7844 119.642 55.7749C119.614 55.7653 119.583 55.7621 119.553 55.7654C119.441 55.7713 119.331 55.7984 119.228 55.8452C119.056 55.92 118.889 56.0082 118.731 56.109L118.725 56.0415ZM119.504 53.63C119.49 53.5197 119.511 53.4077 119.564 53.3098C119.617 53.2119 119.699 53.1329 119.799 53.0839C120.004 52.9931 120.226 52.947 120.45 52.9489C120.658 52.9449 120.863 53.0072 121.033 53.1269C121.113 53.1852 121.178 53.262 121.222 53.3506C121.265 53.4393 121.287 53.5373 121.285 53.6362C121.287 53.7177 121.27 53.7986 121.235 53.8722C121.199 53.9459 121.147 54.01 121.082 54.0596C120.945 54.169 120.789 54.2522 120.622 54.305C120.53 54.3396 120.436 54.3662 120.339 54.3848C120.26 54.3917 120.18 54.3917 120.1 54.3848C120.021 54.3895 119.942 54.3746 119.87 54.3414C119.798 54.3082 119.736 54.2577 119.689 54.1946C119.595 54.0711 119.536 53.925 119.517 53.7712C119.512 53.7448 119.512 53.7178 119.517 53.6914V53.6055L119.504 53.63Z" fill="#ED1C24"/>
<path d="M122.519 58.7908V54.5569C122.519 54.3255 122.567 54.0966 122.662 53.8852C122.756 53.6738 122.893 53.4845 123.065 53.3296C123.263 53.1489 123.494 53.0091 123.746 52.9185C123.998 52.828 124.265 52.7883 124.533 52.8019H125.81C125.724 52.9229 125.62 53.0304 125.503 53.121C125.402 53.1984 125.29 53.2605 125.171 53.3051C125.03 53.3707 124.878 53.4122 124.723 53.4278H124.336C124.231 53.4316 124.126 53.4439 124.023 53.4646C123.991 53.4692 123.962 53.4856 123.942 53.5106C123.921 53.5356 123.911 53.5674 123.913 53.5996V58.7724C123.91 58.799 123.913 58.8259 123.922 58.8513C123.93 58.8767 123.944 58.9 123.962 58.9197C124.004 58.9522 124.056 58.9675 124.109 58.9626C124.27 58.9424 124.425 58.8947 124.57 58.8215C124.782 58.7161 124.987 58.5973 125.184 58.4656C125.043 58.6506 124.883 58.8194 124.705 58.9688C124.525 59.1232 124.329 59.2588 124.121 59.3738C123.984 59.4501 123.84 59.5138 123.692 59.564C123.567 59.6064 123.436 59.6291 123.305 59.6315C123.191 59.6422 123.077 59.6268 122.971 59.5864C122.864 59.546 122.768 59.4816 122.691 59.3983C122.565 59.2191 122.503 59.0033 122.513 58.7847L122.519 58.7908Z" fill="#ED1C24"/>
<path d="M129.586 55.8082L129.715 55.6548L129.912 55.4278C130.023 55.3207 130.144 55.2241 130.274 55.1394C130.4 55.0521 130.55 55.005 130.704 55.0044C130.782 55.0184 130.857 55.0476 130.925 55.0903C131.043 55.1544 131.154 55.2305 131.256 55.3173C131.413 55.4524 131.551 55.6071 131.668 55.7776C131.787 55.9439 131.851 56.1435 131.852 56.3482C131.772 56.671 131.609 56.9673 131.379 57.2073L130.323 58.5511L130.102 58.8395L129.881 59.134C129.601 59.5065 129.345 59.8958 129.113 60.2999C128.923 60.5986 128.811 60.9405 128.788 61.294V61.3615C128.783 61.3837 128.783 61.4067 128.788 61.429C128.825 61.7401 128.976 62.0266 129.212 62.2328C129.495 62.484 129.865 62.614 130.243 62.5948C130.518 62.6101 130.791 62.5507 131.035 62.423C131.251 62.2827 131.435 62.0988 131.575 61.883L131.637 61.7726L131.717 61.6499C131.731 61.8258 131.699 62.0025 131.625 62.1626C131.551 62.3228 131.436 62.4611 131.293 62.5642C131.007 62.7535 130.685 62.881 130.347 62.9385C130.216 62.9649 130.082 62.9813 129.948 62.9875H129.58C129.042 63.0127 128.505 62.9271 128.002 62.736C127.824 62.655 127.675 62.5204 127.577 62.351C127.479 62.1816 127.437 61.9858 127.456 61.791C127.458 61.6668 127.483 61.5442 127.529 61.429C127.578 61.2983 127.64 61.1729 127.714 61.0547C127.801 60.9065 127.9 60.765 128.008 60.6313C128.123 60.4922 128.235 60.3613 128.346 60.2385C128.494 60.0754 128.649 59.9198 128.813 59.7722L129.15 59.4654C128.741 58.7781 128.391 58.2259 128.1 57.8086L127.953 57.5939L127.806 57.3791C127.601 57.0921 127.381 56.8157 127.149 56.5507C127.023 56.3752 126.847 56.2407 126.645 56.1641H126.541H126.289H126.129C126.009 56.1777 125.889 56.2023 125.773 56.2378L125.46 56.3421L125.245 56.4218L125.092 56.4955L125.337 56.2316C125.436 56.1294 125.546 56.023 125.669 55.9125C125.792 55.8021 125.925 55.6957 126.068 55.5935C126.203 55.496 126.345 55.4079 126.492 55.3296C126.601 55.2699 126.717 55.2206 126.835 55.1823C126.943 55.1471 127.054 55.1285 127.167 55.1271C127.356 55.1448 127.538 55.2047 127.701 55.3024C127.864 55.4001 128.002 55.5332 128.106 55.6916C128.427 56.0841 128.727 56.4938 129.003 56.9189L129.175 57.1766L129.347 57.4343L129.703 57.9252C129.809 58.0711 129.928 58.2067 130.059 58.3302C130.19 58.1543 130.298 57.9988 130.384 57.8638L130.526 57.5877C130.57 57.4968 130.607 57.4024 130.636 57.3055C130.663 57.247 130.682 57.185 130.691 57.1214C130.696 57.0601 130.696 56.9986 130.691 56.9373C130.694 56.8027 130.668 56.6691 130.615 56.5454C130.562 56.4216 130.483 56.3105 130.384 56.2194C130.143 56.0027 129.855 55.8433 129.543 55.753L129.586 55.8082Z" fill="#ED1C24"/>
<path d="M135.561 55.4525C135.53 55.0347 135.628 54.6173 135.842 54.2571C136.056 53.8969 136.376 53.6116 136.759 53.4399C137.769 53.0219 138.859 52.8293 139.951 52.8753C140.533 52.844 141.114 52.9425 141.652 53.1637C142.041 53.3584 142.396 53.6155 142.702 53.9246L143.015 54.2437L143.34 54.5873L145.932 58.4776V54.0535C145.933 53.9488 145.911 53.8452 145.866 53.7506C145.821 53.6559 145.755 53.5727 145.674 53.5073C145.508 53.3644 145.321 53.2465 145.121 53.1576L144.802 53.0349L144.538 52.9551H148.105C147.588 52.9923 147.088 53.1567 146.65 53.4337C146.556 53.5077 146.478 53.6005 146.422 53.7062C146.366 53.8119 146.333 53.9281 146.324 54.0473V59.0054L146.595 59.4533C146.689 59.6087 146.793 59.7642 146.908 59.9196C147.233 60.3909 147.633 60.8055 148.093 61.1469C148.689 61.5429 149.398 61.7345 150.113 61.693C150.276 61.6899 150.439 61.6693 150.598 61.6316C150.788 61.5892 150.975 61.5318 151.156 61.4598C151.285 61.4129 151.41 61.3575 151.531 61.2941L151.875 61.0978L151.783 61.196L151.678 61.2941C151.455 61.4837 151.202 61.635 150.929 61.7421C150.48 61.8978 150.005 61.9666 149.529 61.9446C148.903 61.9623 148.28 61.8529 147.698 61.623C147.115 61.3931 146.585 61.0474 146.14 60.6069C145.237 59.7149 144.428 58.732 143.727 57.6738L143.064 56.6429C142.847 56.3034 142.63 55.9802 142.413 55.6734C142.15 55.2898 141.865 54.921 141.56 54.5689C141.299 54.2636 140.997 53.9952 140.664 53.7712V58.9563C140.661 59.0892 140.695 59.2202 140.761 59.3357C140.827 59.4512 140.923 59.5469 141.038 59.6128C141.301 59.7787 141.583 59.9106 141.879 60.0055H141.971H142.076H138.533C139.037 59.9742 139.526 59.8204 139.957 59.5576C140.053 59.4781 140.13 59.3787 140.183 59.2663C140.236 59.154 140.264 59.0314 140.264 58.9072V53.5135C140.237 53.5079 140.212 53.4952 140.191 53.4767L140.117 53.4337C139.959 53.334 139.787 53.2575 139.608 53.2067C139.37 53.15 139.127 53.1252 138.883 53.133C138.52 53.0936 138.154 53.1276 137.804 53.233C137.455 53.3384 137.131 53.5131 136.851 53.7467C136.483 54.122 136.278 54.6267 136.28 55.1518C136.256 55.4754 136.308 55.8001 136.433 56.0996C136.558 56.3992 136.751 56.6652 136.998 56.8761C137.515 57.276 138.097 57.5852 138.717 57.7904C137.834 57.8732 136.953 57.6091 136.261 57.0541C136.04 56.8527 135.863 56.6085 135.739 56.3363C135.616 56.0641 135.549 55.7697 135.543 55.4709L135.561 55.4525Z" fill="#ED1C24"/>
<path d="M147.258 57.5206C147.272 57.1956 147.364 56.8789 147.527 56.597C147.689 56.3151 147.917 56.0763 148.191 55.9007C148.807 55.4286 149.564 55.1779 150.34 55.1889C150.672 55.1645 151.006 55.2062 151.322 55.3115C151.639 55.4169 151.931 55.5837 152.182 55.8025C152.379 55.9918 152.536 56.2197 152.641 56.472C152.747 56.7243 152.8 56.9956 152.796 57.269C152.782 57.6034 152.686 57.9291 152.517 58.2179C152.348 58.5067 152.111 58.7498 151.826 58.9258C151.21 59.3937 150.457 59.646 149.683 59.6437C149.024 59.685 148.375 59.4644 147.878 59.0301C147.676 58.8363 147.517 58.6024 147.411 58.3435C147.306 58.0845 147.255 57.8063 147.264 57.5267L147.258 57.5206ZM149.861 55.6798C149.495 55.6693 149.14 55.8038 148.873 56.0541C148.753 56.1713 148.658 56.3118 148.595 56.467C148.532 56.6221 148.501 56.7886 148.504 56.9561C148.504 57.0665 148.504 57.2159 148.504 57.404C148.513 57.6117 148.546 57.8176 148.602 58.0176C148.692 58.3274 148.854 58.6113 149.075 58.846C149.219 58.9806 149.39 59.0835 149.576 59.1479C149.762 59.2124 149.96 59.2371 150.156 59.2203C150.337 59.2269 150.518 59.1971 150.688 59.1328C150.858 59.0686 151.013 58.9711 151.144 58.846C151.27 58.7263 151.369 58.5813 151.435 58.4205C151.5 58.2597 151.531 58.0869 151.525 57.9133C151.531 57.7845 151.531 57.6555 151.525 57.5267C151.509 57.3819 151.482 57.2383 151.445 57.0972C151.356 56.7455 151.186 56.4197 150.948 56.1461C150.81 55.9958 150.641 55.8785 150.451 55.8031C150.262 55.7277 150.058 55.696 149.855 55.7104L149.861 55.6798Z" fill="#ED1C24"/>
<path d="M155.289 53.618V55.2195H155.583H156.449C156.393 55.3148 156.313 55.3933 156.216 55.4466C156.12 55.5033 156.017 55.5466 155.909 55.5754C155.794 55.6082 155.677 55.6308 155.559 55.6429H155.326H155.289V58.711C155.285 58.7424 155.289 58.7742 155.3 58.804C155.31 58.8338 155.328 58.8607 155.35 58.8828C155.402 58.9191 155.465 58.9365 155.528 58.9319C155.708 58.919 155.884 58.8688 156.044 58.7847C156.29 58.6658 156.528 58.5305 156.756 58.3797C156.552 58.6633 156.306 58.9137 156.025 59.1221C155.76 59.3271 155.455 59.4754 155.129 59.5578L154.933 59.5946H154.736C154.621 59.6123 154.502 59.5982 154.394 59.5538C154.286 59.5095 154.192 59.4367 154.122 59.343C153.989 59.0685 153.932 58.7635 153.956 58.4594V55.5938H153.729H153.115C153.126 55.5142 153.16 55.4395 153.213 55.3791C153.275 55.3228 153.349 55.2809 153.428 55.2564C153.617 55.1664 153.874 55.0314 154.202 54.8514C154.656 54.5175 155.016 54.0713 155.246 53.5566L155.289 53.618Z" fill="#ED1C24"/>
<path d="M156.842 55.8942C157.006 55.7074 157.199 55.5479 157.413 55.4217C157.602 55.31 157.81 55.2331 158.027 55.1947H158.174H158.358C158.511 55.1851 158.663 55.2285 158.788 55.3174C158.877 55.3871 158.946 55.4778 158.991 55.5812C159.027 55.6548 159.052 55.7334 159.064 55.8144C159.064 55.888 159.064 55.9371 159.064 55.9555V58.183C159.061 58.336 159.095 58.4875 159.163 58.6248C159.228 58.7557 159.394 58.8211 159.66 58.8211C159.753 58.8184 159.844 58.7997 159.93 58.7659C160.037 58.728 160.142 58.6829 160.243 58.6309C160.369 58.5539 160.49 58.4699 160.605 58.3793C160.713 58.297 160.809 58.2023 160.894 58.0971C160.947 58.0413 160.991 57.977 161.023 57.9068C161.049 57.8511 161.064 57.7905 161.066 57.7289V55.9617C161.075 55.8474 161.115 55.7378 161.181 55.6439C161.246 55.5501 161.336 55.4755 161.441 55.4278C161.722 55.2674 162.043 55.1888 162.368 55.2008V58.8273L162.423 58.8764L162.527 58.9132C162.582 58.9196 162.638 58.9196 162.693 58.9132C162.847 58.905 162.998 58.8718 163.141 58.815C163.386 58.7181 163.617 58.5903 163.829 58.4346L163.589 58.6739C163.462 58.7971 163.329 58.9139 163.19 59.0236C163.039 59.1341 162.879 59.2404 162.711 59.3427C162.552 59.4432 162.381 59.5236 162.202 59.582L161.981 59.625C161.913 59.6312 161.846 59.6312 161.778 59.625C161.678 59.6366 161.576 59.6279 161.479 59.5994C161.382 59.5709 161.292 59.5233 161.213 59.4593C161.102 59.3233 161.047 59.1498 161.06 58.9745V58.5143C160.98 58.5863 160.896 58.6539 160.808 58.7168L160.513 58.9193C160.255 59.0977 159.982 59.2537 159.697 59.3857C159.41 59.5223 159.099 59.6035 158.782 59.625H158.684C158.557 59.6384 158.429 59.6189 158.311 59.5684C158.194 59.5179 158.092 59.438 158.014 59.3366C157.886 59.1412 157.806 58.9183 157.781 58.6861C157.776 58.6454 157.776 58.6042 157.781 58.5634V56.0599C157.783 55.9695 157.766 55.8796 157.732 55.796C157.701 55.7224 157.615 55.6855 157.486 55.6855C157.399 55.6958 157.313 55.7122 157.229 55.7346C157.102 55.7702 156.978 55.8174 156.86 55.8758L156.842 55.8942Z" fill="#ED1C24"/>
<path d="M169.189 56.8272V57.3795C169.183 57.4612 169.183 57.5432 169.189 57.6249V58.6006C169.177 58.7128 169.177 58.8259 169.189 58.9381C169.186 58.9685 169.191 58.999 169.201 59.0275C169.212 59.0561 169.228 59.0821 169.25 59.1038C169.294 59.1415 169.351 59.1612 169.41 59.159C169.521 59.1528 169.629 59.1235 169.729 59.0731C169.884 59 170.034 58.9159 170.177 58.8215C170.079 58.959 169.964 59.0828 169.833 59.1897C169.713 59.2883 169.584 59.3747 169.446 59.4474C169.315 59.5041 169.18 59.5492 169.041 59.5824C168.929 59.6099 168.813 59.6244 168.697 59.6253C168.481 59.6337 168.266 59.5759 168.083 59.4597C168.001 59.4038 167.935 59.3274 167.892 59.2379C167.849 59.1485 167.83 59.0493 167.838 58.9504V56.6493V56.5388C167.842 56.5124 167.842 56.4855 167.838 56.4591C167.826 56.3801 167.79 56.3068 167.733 56.2504C167.634 56.173 167.508 56.1378 167.383 56.1523C167.29 56.1538 167.198 56.1747 167.113 56.2136C167.013 56.2585 166.919 56.314 166.831 56.3793L166.604 56.5511L166.389 56.7352C166.256 56.8588 166.131 56.9899 166.014 57.1279C165.961 57.188 165.912 57.2515 165.867 57.3181V59.0485V59.0915V59.1344C165.753 59.264 165.61 59.365 165.449 59.429C165.255 59.5172 165.048 59.5751 164.835 59.6008H164.725H164.614V56.1277C164.616 56.1064 164.613 56.085 164.605 56.0649C164.598 56.0448 164.586 56.0265 164.571 56.0111C164.536 55.9803 164.489 55.9649 164.442 55.9682C164.337 55.9742 164.233 55.997 164.135 56.0357C163.97 56.0966 163.808 56.1663 163.65 56.2443C163.947 55.9508 164.275 55.6896 164.627 55.465C164.831 55.3168 165.07 55.222 165.32 55.1889C165.385 55.1813 165.451 55.1867 165.513 55.205C165.576 55.2232 165.634 55.2539 165.684 55.2951C165.735 55.3364 165.776 55.3873 165.807 55.445C165.837 55.5026 165.855 55.5658 165.861 55.6307C165.911 55.9596 165.936 56.292 165.934 56.6248V56.8395L166.217 56.5266C166.374 56.3546 166.54 56.1908 166.714 56.0357C166.922 55.8515 167.144 55.6833 167.377 55.5325C167.604 55.3798 167.858 55.2734 168.126 55.2196H168.261H168.396C168.785 55.2196 169.027 55.3198 169.121 55.5202C169.221 55.7503 169.269 55.9996 169.262 56.2504V56.545C169.258 56.5919 169.258 56.6392 169.262 56.6861V56.8272H169.189Z" fill="#ED1C24"/>
<path d="M178.005 55.2256H179.233V58.9932C179.235 59.0149 179.242 59.036 179.252 59.055C179.263 59.074 179.277 59.0906 179.295 59.1036C179.334 59.1182 179.378 59.1182 179.418 59.1036C179.544 59.0966 179.669 59.0675 179.786 59.0177L180.296 58.8213L180.197 58.9502C180.158 58.9963 180.115 59.0394 180.068 59.0791C179.941 59.1905 179.804 59.2892 179.657 59.3736C179.502 59.4658 179.335 59.5341 179.16 59.5761H178.994H178.847C178.785 59.5824 178.724 59.5824 178.662 59.5761C178.569 59.5521 178.478 59.5171 178.392 59.4718C178.266 59.4003 178.152 59.3092 178.055 59.2018C177.954 59.0883 177.9 58.9419 177.901 58.7907V58.2323L177.533 58.5145C177.361 58.6414 177.172 58.7723 176.968 58.9073L176.741 59.0607L176.501 59.1957C176.306 59.3135 176.1 59.4141 175.887 59.4963C175.728 59.5665 175.557 59.606 175.384 59.6129H175.329H175.273C174.97 59.5765 174.693 59.4249 174.5 59.1895C174.253 58.895 174.128 58.5176 174.15 58.1341C174.128 57.7078 174.218 57.2832 174.411 56.9022C174.603 56.5213 174.892 56.1972 175.249 55.9619C176.061 55.4435 177.012 55.1846 177.975 55.2194L178.005 55.2256ZM176.237 56.0539C175.872 56.3408 175.628 56.755 175.556 57.2137C175.551 57.2401 175.551 57.267 175.556 57.2934V57.3732C175.542 57.5082 175.556 57.6447 175.598 57.7738C175.641 57.9028 175.71 58.0214 175.801 58.1218C175.971 58.2688 176.191 58.3437 176.415 58.3305C176.537 58.3288 176.659 58.3144 176.777 58.2875C176.909 58.2594 177.038 58.2225 177.164 58.177C177.297 58.1293 177.427 58.0718 177.551 58.0052C177.678 57.9357 177.799 57.8641 177.913 57.7905V55.5078C177.309 55.4818 176.715 55.6758 176.243 56.0539H176.237Z" fill="#ED1C24"/>
<path d="M182.714 55.1641H183.033L183.321 55.2071H183.377H183.432H183.653H183.886C184.006 55.2055 184.125 55.1931 184.242 55.1702C184.39 55.1435 184.535 55.1086 184.678 55.0659C184.522 55.2274 184.397 55.4168 184.31 55.6243C184.242 55.8023 184.193 55.9434 184.157 56.0538V56.0907C184.034 55.9966 183.915 55.9107 183.8 55.8329C183.697 55.7632 183.588 55.7017 183.475 55.6489C183.291 55.6092 183.104 55.5927 182.916 55.5998C182.723 55.5682 182.528 55.5539 182.333 55.5568C182.074 55.5322 181.814 55.5834 181.584 55.7041C181.526 55.741 181.477 55.7917 181.443 55.8515C181.409 55.9114 181.39 55.9788 181.387 56.0477C181.387 56.1582 181.461 56.2522 181.608 56.33C181.787 56.4217 181.974 56.4957 182.167 56.5509L182.603 56.6797L183.07 56.8147C183.472 56.9439 183.858 57.1211 184.218 57.3424C184.381 57.4349 184.516 57.57 184.608 57.7333C184.7 57.8965 184.745 58.0817 184.74 58.269C184.759 58.4718 184.716 58.6757 184.616 58.8534C184.516 59.031 184.364 59.174 184.181 59.2631C183.796 59.4459 183.379 59.5541 182.953 59.5821H182.603H182.302C182.065 59.6722 181.808 59.6916 181.56 59.6379C181.312 59.5843 181.085 59.4598 180.907 59.2798C180.729 59.0997 180.607 58.8718 180.556 58.6237C180.505 58.3757 180.527 58.1181 180.62 57.8824C180.65 57.9481 180.685 58.0117 180.724 58.0726L180.859 58.2629C181.09 58.5487 181.371 58.79 181.688 58.9747C182.064 59.1824 182.487 59.2882 182.916 59.2815C183.174 59.3001 183.432 59.2447 183.659 59.1219C183.736 59.0701 183.797 58.9993 183.838 58.9165C183.879 58.8336 183.898 58.7416 183.892 58.6494C183.888 58.574 183.862 58.5015 183.817 58.4406C183.773 58.3796 183.711 58.3328 183.641 58.3058C183.443 58.2042 183.238 58.118 183.027 58.0481L182.665 57.9376L182.29 57.8149C181.898 57.6861 181.524 57.5066 181.179 57.2811C181.016 57.1763 180.883 57.0304 180.795 56.8579C180.706 56.6855 180.665 56.4928 180.675 56.2993C180.658 56.0997 180.709 55.9002 180.821 55.7339C180.933 55.5676 181.098 55.4445 181.289 55.385C181.739 55.2372 182.21 55.1646 182.683 55.1702L182.714 55.1641Z" fill="#ED1C24"/>
<path d="M189.136 55.207C189.497 55.207 189.726 55.2827 189.824 55.4341C189.941 55.6588 189.992 55.9119 189.971 56.1643V58.9992C189.975 59.0417 189.995 59.0813 190.027 59.1096C190.063 59.1205 190.101 59.1205 190.137 59.1096C190.252 59.1032 190.364 59.0762 190.469 59.0298C190.604 58.9767 190.761 58.9051 190.942 58.8151L190.849 58.9378L190.745 59.0605C190.584 59.2107 190.402 59.3368 190.205 59.4348C189.98 59.5481 189.732 59.6049 189.48 59.6005C189.358 59.6149 189.234 59.6031 189.117 59.5661C188.999 59.5291 188.891 59.4676 188.799 59.3857C188.681 59.2532 188.611 59.0844 188.602 58.9071V56.4527C188.592 56.3819 188.557 56.3169 188.504 56.2686C188.413 56.2045 188.302 56.1761 188.191 56.1888H188.08H187.952C187.79 56.2409 187.639 56.3198 187.503 56.422C187.364 56.5243 187.235 56.6394 187.116 56.7656C187.009 56.8781 186.91 56.9992 186.822 57.1276C186.768 57.1939 186.73 57.2716 186.711 57.3547V58.6187C186.689 58.7446 186.64 58.8644 186.568 58.9701C186.496 59.0758 186.403 59.1652 186.294 59.2323C186.015 59.4314 185.678 59.5328 185.336 59.5207V54.5566C185.336 54.3258 185.384 54.0974 185.477 53.8861C185.57 53.6748 185.706 53.4852 185.876 53.3294C186.072 53.1482 186.302 53.0082 186.553 52.9175C186.804 52.8269 187.071 52.7875 187.338 52.8016H188.615C188.529 52.9226 188.425 53.0302 188.308 53.1207C188.207 53.1983 188.095 53.2604 187.976 53.3048C187.835 53.3704 187.683 53.4119 187.528 53.4275H187.141C187.036 53.4313 186.931 53.4437 186.828 53.4643C186.796 53.4689 186.767 53.4853 186.746 53.5103C186.726 53.5353 186.716 53.5671 186.717 53.5993V56.8822L186.969 56.5999C187.063 56.4936 187.168 56.3872 187.282 56.2808C187.475 56.0934 187.68 55.9191 187.896 55.7593C188.085 55.6021 188.291 55.4663 188.51 55.3543C188.616 55.3099 188.725 55.273 188.836 55.2438C188.938 55.2161 189.043 55.2017 189.149 55.2009L189.136 55.207Z" fill="#ED1C24"/>
<path d="M195.271 55.2256H196.499V58.9932C196.501 59.0149 196.507 59.036 196.518 59.055C196.528 59.074 196.543 59.0906 196.56 59.1036C196.6 59.1187 196.643 59.1187 196.683 59.1036C196.81 59.0967 196.935 59.0676 197.051 59.0177L197.561 58.8213L197.463 58.9502C197.423 58.9963 197.38 59.0394 197.334 59.0791C197.207 59.1904 197.069 59.2891 196.922 59.3736C196.768 59.4658 196.6 59.5341 196.425 59.5761H196.265H196.118C196.057 59.5824 195.995 59.5824 195.934 59.5761C195.84 59.5521 195.749 59.5171 195.664 59.4718C195.537 59.4004 195.423 59.3092 195.326 59.2018C195.226 59.0883 195.171 58.9419 195.173 58.7907V58.2323L194.804 58.5145C194.632 58.6414 194.444 58.7723 194.239 58.9073L194.012 59.0607L193.773 59.1957C193.577 59.3135 193.372 59.4141 193.159 59.4963C193 59.5665 192.829 59.606 192.655 59.6129H192.6H192.545C192.242 59.5765 191.965 59.4249 191.771 59.1895C191.524 58.895 191.399 58.5176 191.421 58.1341C191.399 57.7078 191.49 57.2832 191.682 56.9022C191.875 56.5213 192.164 56.1972 192.52 55.9619C193.332 55.4435 194.283 55.1846 195.246 55.2194L195.271 55.2256ZM193.503 56.0539C193.137 56.3408 192.894 56.755 192.821 57.2137C192.817 57.2401 192.817 57.267 192.821 57.2934V57.3732C192.807 57.5082 192.821 57.6447 192.864 57.7738C192.906 57.9028 192.975 58.0214 193.067 58.1218C193.236 58.2688 193.457 58.3437 193.681 58.3305C193.803 58.3288 193.924 58.3144 194.043 58.2875C194.174 58.2593 194.303 58.2224 194.43 58.177C194.563 58.1293 194.692 58.0719 194.816 58.0052C194.943 57.9357 195.064 57.8641 195.179 57.7905V55.5078C194.572 55.4803 193.976 55.6744 193.503 56.0539Z" fill="#ED1C24"/>
</g>
<defs>
<clipPath id="clip0_765_737">
<rect width="218" height="63" fill="white"/>
</clipPath>
</defs>
</svg>
